%TF.GenerationSoftware,KiCad,Pcbnew,(7.0.0)*%
%TF.CreationDate,2023-10-25T22:20:09+02:00*%
%TF.ProjectId,ProjetA,50726f6a-6574-4412-9e6b-696361645f70,rev?*%
%TF.SameCoordinates,Original*%
%TF.FileFunction,Copper,L3,Inr*%
%TF.FilePolarity,Positive*%
%FSLAX46Y46*%
G04 Gerber Fmt 4.6, Leading zero omitted, Abs format (unit mm)*
G04 Created by KiCad (PCBNEW (7.0.0)) date 2023-10-25 22:20:09*
%MOMM*%
%LPD*%
G01*
G04 APERTURE LIST*
G04 Aperture macros list*
%AMRoundRect*
0 Rectangle with rounded corners*
0 $1 Rounding radius*
0 $2 $3 $4 $5 $6 $7 $8 $9 X,Y pos of 4 corners*
0 Add a 4 corners polygon primitive as box body*
4,1,4,$2,$3,$4,$5,$6,$7,$8,$9,$2,$3,0*
0 Add four circle primitives for the rounded corners*
1,1,$1+$1,$2,$3*
1,1,$1+$1,$4,$5*
1,1,$1+$1,$6,$7*
1,1,$1+$1,$8,$9*
0 Add four rect primitives between the rounded corners*
20,1,$1+$1,$2,$3,$4,$5,0*
20,1,$1+$1,$4,$5,$6,$7,0*
20,1,$1+$1,$6,$7,$8,$9,0*
20,1,$1+$1,$8,$9,$2,$3,0*%
G04 Aperture macros list end*
%TA.AperFunction,ComponentPad*%
%ADD10RoundRect,0.250000X0.600000X0.750000X-0.600000X0.750000X-0.600000X-0.750000X0.600000X-0.750000X0*%
%TD*%
%TA.AperFunction,ComponentPad*%
%ADD11O,1.700000X2.000000*%
%TD*%
%TA.AperFunction,ComponentPad*%
%ADD12C,0.800000*%
%TD*%
%TA.AperFunction,ComponentPad*%
%ADD13C,5.400000*%
%TD*%
%TA.AperFunction,ComponentPad*%
%ADD14RoundRect,0.250000X-0.750000X0.600000X-0.750000X-0.600000X0.750000X-0.600000X0.750000X0.600000X0*%
%TD*%
%TA.AperFunction,ComponentPad*%
%ADD15O,2.000000X1.700000*%
%TD*%
%TA.AperFunction,ComponentPad*%
%ADD16RoundRect,0.250000X-0.600000X-0.750000X0.600000X-0.750000X0.600000X0.750000X-0.600000X0.750000X0*%
%TD*%
%TA.AperFunction,ComponentPad*%
%ADD17RoundRect,0.250000X0.600000X0.725000X-0.600000X0.725000X-0.600000X-0.725000X0.600000X-0.725000X0*%
%TD*%
%TA.AperFunction,ComponentPad*%
%ADD18O,1.700000X1.950000*%
%TD*%
%TA.AperFunction,ViaPad*%
%ADD19C,0.600000*%
%TD*%
%TA.AperFunction,ViaPad*%
%ADD20C,0.800000*%
%TD*%
G04 APERTURE END LIST*
D10*
%TO.N,/Palm*%
%TO.C,J11*%
X105250000Y-58250000D03*
D11*
%TO.N,GND*%
X102749999Y-58249999D03*
%TD*%
D10*
%TO.N,/Thumb*%
%TO.C,J10*%
X96250000Y-58250000D03*
D11*
%TO.N,GND*%
X93749999Y-58249999D03*
%TD*%
D12*
%TO.N,GND*%
%TO.C,H4*%
X84593109Y-92031891D03*
X85186218Y-90600000D03*
X85186218Y-93463782D03*
X86618109Y-90006891D03*
D13*
X86618109Y-92031891D03*
D12*
X86618109Y-94056891D03*
X88050000Y-90600000D03*
X88050000Y-93463782D03*
X88643109Y-92031891D03*
%TD*%
%TO.N,GND*%
%TO.C,H2*%
X140950000Y-51500000D03*
X141543109Y-50068109D03*
X141543109Y-52931891D03*
X142975000Y-49475000D03*
D13*
X142975000Y-51500000D03*
D12*
X142975000Y-53525000D03*
X144406891Y-50068109D03*
X144406891Y-52931891D03*
X145000000Y-51500000D03*
%TD*%
D10*
%TO.N,/Back Hand*%
%TO.C,J12*%
X114250000Y-58250000D03*
D11*
%TO.N,GND*%
X111749999Y-58249999D03*
%TD*%
D12*
%TO.N,GND*%
%TO.C,H1*%
X84493109Y-51481891D03*
X85086218Y-50050000D03*
X85086218Y-52913782D03*
X86518109Y-49456891D03*
D13*
X86518109Y-51481891D03*
D12*
X86518109Y-53506891D03*
X87950000Y-50050000D03*
X87950000Y-52913782D03*
X88543109Y-51481891D03*
%TD*%
D14*
%TO.N,/Little Finger*%
%TO.C,J9*%
X92450000Y-65250000D03*
D15*
%TO.N,GND*%
X92449999Y-67749999D03*
%TD*%
D10*
%TO.N,GND*%
%TO.C,J4*%
X136500000Y-52600000D03*
D11*
%TO.N,VCC*%
X133999999Y-52599999D03*
%TD*%
D16*
%TO.N,/Index Finger*%
%TO.C,J6*%
X99500000Y-85500000D03*
D11*
%TO.N,GND*%
X101999999Y-85499999D03*
%TD*%
D14*
%TO.N,/Ring Finger*%
%TO.C,J7*%
X92450000Y-83250000D03*
D15*
%TO.N,GND*%
X92449999Y-85749999D03*
%TD*%
D12*
%TO.N,GND*%
%TO.C,H3*%
X140950000Y-91950000D03*
X141543109Y-90518109D03*
X141543109Y-93381891D03*
X142975000Y-89925000D03*
D13*
X142975000Y-91950000D03*
D12*
X142975000Y-93975000D03*
X144406891Y-90518109D03*
X144406891Y-93381891D03*
X145000000Y-91950000D03*
%TD*%
D17*
%TO.N,+3.3V*%
%TO.C,J2*%
X126300000Y-52300000D03*
D18*
%TO.N,GND*%
X123799999Y-52299999D03*
%TO.N,/MyoWare*%
X121299999Y-52299999D03*
%TD*%
D14*
%TO.N,/Midle Fingle*%
%TO.C,J8*%
X92450000Y-74250000D03*
D15*
%TO.N,GND*%
X92449999Y-76749999D03*
%TD*%
D19*
%TO.N,GND*%
X106700000Y-71300000D03*
X130300000Y-59500000D03*
X121950000Y-65250000D03*
X108500000Y-72500000D03*
X99900000Y-73500000D03*
X109050000Y-95100000D03*
X119400000Y-83300000D03*
X116350000Y-83200000D03*
X120000000Y-88350000D03*
X99550000Y-77950000D03*
X100600000Y-65100000D03*
X95600000Y-66850000D03*
D20*
X115800000Y-61600000D03*
X112330000Y-66900000D03*
D19*
X107200000Y-74700000D03*
X132350000Y-56000000D03*
X106050000Y-65300000D03*
X101850000Y-76150000D03*
D20*
%TO.N,+3.3V*%
X109200000Y-80400000D03*
X117600000Y-82400000D03*
X126500000Y-55700000D03*
X130300000Y-74000000D03*
X134100000Y-70900000D03*
X101600000Y-79600000D03*
X134100000Y-60200000D03*
X127200000Y-72900000D03*
X124800000Y-66900000D03*
X110200000Y-67199500D03*
X127599500Y-75600000D03*
X128800000Y-65600000D03*
X144200000Y-64400000D03*
X127900000Y-78400000D03*
X143900000Y-59500000D03*
X144100000Y-62000000D03*
X126800000Y-69900000D03*
X121400000Y-82000000D03*
X133500000Y-84100000D03*
X115100000Y-94400500D03*
X130700000Y-81100000D03*
%TO.N,/NRST*%
X107600000Y-69800000D03*
X119800000Y-66000000D03*
X100200000Y-63400000D03*
%TO.N,/MyoWare*%
X117200000Y-63600000D03*
X117900000Y-53100000D03*
X124500000Y-81100000D03*
%TO.N,/Reset*%
X125000000Y-87600000D03*
X126800000Y-92400000D03*
%TO.N,/I2C1_SCL*%
X128800000Y-72200000D03*
X128400000Y-74300000D03*
%TO.N,/I2C1_SDA*%
X126900000Y-81100000D03*
X128500000Y-76900000D03*
X124600000Y-72300000D03*
%TD*%
%TA.AperFunction,Conductor*%
%TO.N,+3.3V*%
G36*
X143002845Y-47500631D02*
G01*
X143173010Y-47508498D01*
X143369795Y-47518166D01*
X143380787Y-47519201D01*
X143562876Y-47544601D01*
X143563781Y-47544732D01*
X143747261Y-47571949D01*
X143757413Y-47573892D01*
X143938614Y-47616510D01*
X143940023Y-47616852D01*
X144117874Y-47661401D01*
X144127091Y-47664096D01*
X144304478Y-47723550D01*
X144306618Y-47724292D01*
X144478220Y-47785692D01*
X144486519Y-47789004D01*
X144657980Y-47864712D01*
X144660909Y-47866051D01*
X144747263Y-47906892D01*
X144825119Y-47943715D01*
X144832411Y-47947465D01*
X144996435Y-48038827D01*
X144999810Y-48040777D01*
X145155371Y-48134017D01*
X145161670Y-48138058D01*
X145316699Y-48244256D01*
X145320459Y-48246935D01*
X145466009Y-48354882D01*
X145471305Y-48359040D01*
X145616009Y-48479200D01*
X145619947Y-48482617D01*
X145754206Y-48604303D01*
X145758590Y-48608478D01*
X145891520Y-48741408D01*
X145895698Y-48745795D01*
X146017375Y-48880045D01*
X146020805Y-48883998D01*
X146140951Y-49028684D01*
X146145124Y-49034000D01*
X146214350Y-49127340D01*
X146253041Y-49179509D01*
X146255742Y-49183299D01*
X146361940Y-49338328D01*
X146365992Y-49344645D01*
X146370925Y-49352875D01*
X146459200Y-49500153D01*
X146461171Y-49503563D01*
X146552525Y-49667573D01*
X146556291Y-49674896D01*
X146633947Y-49839089D01*
X146635286Y-49842018D01*
X146710994Y-50013479D01*
X146714311Y-50021791D01*
X146775666Y-50193265D01*
X146776487Y-50195634D01*
X146835894Y-50372881D01*
X146838606Y-50382157D01*
X146883104Y-50559803D01*
X146883526Y-50561543D01*
X146926101Y-50742562D01*
X146928053Y-50752758D01*
X146955257Y-50936156D01*
X146955410Y-50937218D01*
X146980794Y-51119184D01*
X146981834Y-51130232D01*
X146991505Y-51327089D01*
X146991522Y-51327447D01*
X146999362Y-51497047D01*
X146999494Y-51502955D01*
X146940117Y-91947215D01*
X146939985Y-91952759D01*
X146932144Y-92122370D01*
X146932127Y-92122729D01*
X146922490Y-92318878D01*
X146921450Y-92329924D01*
X146896117Y-92511530D01*
X146895964Y-92512594D01*
X146868837Y-92695467D01*
X146866885Y-92705661D01*
X146824388Y-92886350D01*
X146823966Y-92888090D01*
X146779608Y-93065179D01*
X146776896Y-93074457D01*
X146717605Y-93251354D01*
X146716785Y-93253721D01*
X146655600Y-93424724D01*
X146652282Y-93433037D01*
X146576743Y-93604114D01*
X146575404Y-93607044D01*
X146497953Y-93770800D01*
X146494187Y-93778122D01*
X146403034Y-93941773D01*
X146401064Y-93945182D01*
X146308117Y-94100256D01*
X146304057Y-94106585D01*
X146198094Y-94261271D01*
X146195393Y-94265060D01*
X146087776Y-94410166D01*
X146083575Y-94415517D01*
X145963728Y-94559843D01*
X145960209Y-94563899D01*
X145838951Y-94697687D01*
X145834754Y-94702095D01*
X145702095Y-94834754D01*
X145697687Y-94838951D01*
X145563899Y-94960209D01*
X145559843Y-94963728D01*
X145415517Y-95083575D01*
X145410166Y-95087776D01*
X145265060Y-95195393D01*
X145261271Y-95198094D01*
X145106585Y-95304057D01*
X145100256Y-95308117D01*
X144945182Y-95401064D01*
X144941773Y-95403034D01*
X144778122Y-95494187D01*
X144770800Y-95497953D01*
X144607044Y-95575404D01*
X144604114Y-95576743D01*
X144433037Y-95652282D01*
X144424724Y-95655600D01*
X144253721Y-95716785D01*
X144251354Y-95717605D01*
X144074457Y-95776896D01*
X144065179Y-95779608D01*
X143888090Y-95823966D01*
X143886350Y-95824388D01*
X143705661Y-95866885D01*
X143695467Y-95868837D01*
X143512594Y-95895964D01*
X143511530Y-95896117D01*
X143329924Y-95921450D01*
X143318878Y-95922490D01*
X143122883Y-95932119D01*
X143122525Y-95932136D01*
X142952788Y-95939984D01*
X142947171Y-95940116D01*
X86502923Y-95990110D01*
X86497086Y-95989978D01*
X86327282Y-95982127D01*
X86326925Y-95982110D01*
X86131122Y-95972491D01*
X86120075Y-95971451D01*
X85938467Y-95946118D01*
X85937403Y-95945965D01*
X85754529Y-95918838D01*
X85744334Y-95916886D01*
X85563664Y-95874393D01*
X85561925Y-95873971D01*
X85384817Y-95829608D01*
X85375540Y-95826896D01*
X85198589Y-95767588D01*
X85196221Y-95766767D01*
X85025302Y-95705611D01*
X85016990Y-95702294D01*
X84845822Y-95626716D01*
X84842891Y-95625376D01*
X84679206Y-95547958D01*
X84671884Y-95544193D01*
X84508244Y-95453046D01*
X84504835Y-95451076D01*
X84424681Y-95403034D01*
X84349718Y-95358103D01*
X84343405Y-95354053D01*
X84188737Y-95248102D01*
X84184948Y-95245401D01*
X84039822Y-95137769D01*
X84034471Y-95133568D01*
X83994047Y-95100000D01*
X108494750Y-95100000D01*
X108495811Y-95108059D01*
X108507664Y-95198094D01*
X108513670Y-95243709D01*
X108516781Y-95251220D01*
X108516782Y-95251223D01*
X108540348Y-95308117D01*
X108569139Y-95377625D01*
X108574084Y-95384069D01*
X108574085Y-95384071D01*
X108625500Y-95451076D01*
X108657379Y-95492621D01*
X108772375Y-95580861D01*
X108906291Y-95636330D01*
X109050000Y-95655250D01*
X109193709Y-95636330D01*
X109327625Y-95580861D01*
X109442621Y-95492621D01*
X109530861Y-95377625D01*
X109586330Y-95243709D01*
X109605250Y-95100000D01*
X109586330Y-94956291D01*
X109530861Y-94822375D01*
X109442621Y-94707379D01*
X109417525Y-94688122D01*
X109334071Y-94624085D01*
X109334069Y-94624084D01*
X109327625Y-94619139D01*
X109260726Y-94591429D01*
X109201223Y-94566782D01*
X109201220Y-94566781D01*
X109193709Y-94563670D01*
X109185649Y-94562608D01*
X109185646Y-94562608D01*
X109058059Y-94545811D01*
X109050000Y-94544750D01*
X109041941Y-94545811D01*
X108914353Y-94562608D01*
X108914348Y-94562609D01*
X108906291Y-94563670D01*
X108898781Y-94566780D01*
X108898776Y-94566782D01*
X108779885Y-94616028D01*
X108779883Y-94616029D01*
X108772375Y-94619139D01*
X108765933Y-94624082D01*
X108765928Y-94624085D01*
X108663821Y-94702435D01*
X108663817Y-94702438D01*
X108657379Y-94707379D01*
X108652438Y-94713817D01*
X108652435Y-94713821D01*
X108574085Y-94815928D01*
X108574082Y-94815933D01*
X108569139Y-94822375D01*
X108566029Y-94829883D01*
X108566028Y-94829885D01*
X108516782Y-94948776D01*
X108516780Y-94948781D01*
X108513670Y-94956291D01*
X108512609Y-94964348D01*
X108512608Y-94964353D01*
X108504785Y-95023778D01*
X108494750Y-95100000D01*
X83994047Y-95100000D01*
X83890175Y-95013746D01*
X83886119Y-95010227D01*
X83752293Y-94888934D01*
X83747885Y-94884737D01*
X83615261Y-94752113D01*
X83611064Y-94747705D01*
X83489771Y-94613879D01*
X83486252Y-94609823D01*
X83366430Y-94465527D01*
X83362229Y-94460176D01*
X83254597Y-94315050D01*
X83251896Y-94311261D01*
X83145945Y-94156593D01*
X83141906Y-94150298D01*
X83048907Y-93995138D01*
X83046952Y-93991754D01*
X82955805Y-93828114D01*
X82952040Y-93820792D01*
X82928395Y-93770800D01*
X82874615Y-93657091D01*
X82873282Y-93654176D01*
X82797704Y-93483008D01*
X82794392Y-93474708D01*
X82733208Y-93303712D01*
X82732443Y-93301504D01*
X82673097Y-93124442D01*
X82670395Y-93115200D01*
X82625995Y-92937941D01*
X82625639Y-92936474D01*
X82583108Y-92755647D01*
X82581163Y-92745488D01*
X82554007Y-92562415D01*
X82553908Y-92561729D01*
X82528545Y-92379907D01*
X82527508Y-92368893D01*
X82517864Y-92172572D01*
X82511360Y-92031891D01*
X83662609Y-92031891D01*
X83662819Y-92035497D01*
X83682382Y-92371390D01*
X83682383Y-92371398D01*
X83682593Y-92375004D01*
X83683219Y-92378558D01*
X83683221Y-92378569D01*
X83739459Y-92697505D01*
X83742275Y-92713476D01*
X83743304Y-92716916D01*
X83743307Y-92716925D01*
X83839814Y-93039284D01*
X83839818Y-93039295D01*
X83840847Y-93042732D01*
X83842266Y-93046023D01*
X83842271Y-93046035D01*
X83975549Y-93355005D01*
X83976978Y-93358317D01*
X83978780Y-93361439D01*
X83978782Y-93361442D01*
X84147016Y-93652833D01*
X84147022Y-93652842D01*
X84148825Y-93655965D01*
X84150975Y-93658853D01*
X84150983Y-93658865D01*
X84351912Y-93928759D01*
X84351918Y-93928766D01*
X84354065Y-93931650D01*
X84589922Y-94181644D01*
X84592680Y-94183958D01*
X84592684Y-94183962D01*
X84680840Y-94257933D01*
X84853207Y-94402566D01*
X85003068Y-94501131D01*
X85098501Y-94563899D01*
X85140359Y-94591429D01*
X85447495Y-94745679D01*
X85770462Y-94863229D01*
X85920249Y-94898729D01*
X86101385Y-94941659D01*
X86101387Y-94941659D01*
X86104892Y-94942490D01*
X86446262Y-94982391D01*
X86786358Y-94982391D01*
X86789956Y-94982391D01*
X87131326Y-94942490D01*
X87465756Y-94863229D01*
X87788723Y-94745679D01*
X88095859Y-94591429D01*
X88383011Y-94402566D01*
X88646296Y-94181644D01*
X88882153Y-93931650D01*
X89087393Y-93655965D01*
X89259240Y-93358317D01*
X89395371Y-93042732D01*
X89493943Y-92713476D01*
X89549218Y-92400000D01*
X126144722Y-92400000D01*
X126145626Y-92407445D01*
X126162858Y-92549370D01*
X126162859Y-92549375D01*
X126163763Y-92556818D01*
X126166422Y-92563831D01*
X126166423Y-92563832D01*
X126216345Y-92695467D01*
X126219780Y-92704523D01*
X126309517Y-92834530D01*
X126427760Y-92939283D01*
X126567635Y-93012696D01*
X126721015Y-93050500D01*
X126871485Y-93050500D01*
X126878985Y-93050500D01*
X127032365Y-93012696D01*
X127172240Y-92939283D01*
X127290483Y-92834530D01*
X127380220Y-92704523D01*
X127436237Y-92556818D01*
X127455278Y-92400000D01*
X127436237Y-92243182D01*
X127380220Y-92095477D01*
X127290483Y-91965470D01*
X127273021Y-91950000D01*
X140019500Y-91950000D01*
X140019710Y-91953606D01*
X140039273Y-92289499D01*
X140039274Y-92289507D01*
X140039484Y-92293113D01*
X140040110Y-92296667D01*
X140040112Y-92296678D01*
X140086969Y-92562415D01*
X140099166Y-92631585D01*
X140100195Y-92635025D01*
X140100198Y-92635034D01*
X140196705Y-92957393D01*
X140196709Y-92957404D01*
X140197738Y-92960841D01*
X140199157Y-92964132D01*
X140199162Y-92964144D01*
X140323054Y-93251354D01*
X140333869Y-93276426D01*
X140335671Y-93279548D01*
X140335673Y-93279551D01*
X140503907Y-93570942D01*
X140503913Y-93570951D01*
X140505716Y-93574074D01*
X140507866Y-93576962D01*
X140507874Y-93576974D01*
X140708803Y-93846868D01*
X140708809Y-93846875D01*
X140710956Y-93849759D01*
X140946813Y-94099753D01*
X140949571Y-94102067D01*
X140949575Y-94102071D01*
X141161554Y-94279942D01*
X141210098Y-94320675D01*
X141213115Y-94322659D01*
X141430334Y-94465527D01*
X141497250Y-94509538D01*
X141804386Y-94663788D01*
X142127353Y-94781338D01*
X142273300Y-94815928D01*
X142458276Y-94859768D01*
X142458278Y-94859768D01*
X142461783Y-94860599D01*
X142803153Y-94900500D01*
X143143249Y-94900500D01*
X143146847Y-94900500D01*
X143488217Y-94860599D01*
X143822647Y-94781338D01*
X144145614Y-94663788D01*
X144452750Y-94509538D01*
X144739902Y-94320675D01*
X145003187Y-94099753D01*
X145239044Y-93849759D01*
X145444284Y-93574074D01*
X145616131Y-93276426D01*
X145752262Y-92960841D01*
X145850834Y-92631585D01*
X145910516Y-92293113D01*
X145930500Y-91950000D01*
X145910516Y-91606887D01*
X145850834Y-91268415D01*
X145752262Y-90939159D01*
X145616131Y-90623574D01*
X145548438Y-90506326D01*
X145446092Y-90329057D01*
X145446089Y-90329053D01*
X145444284Y-90325926D01*
X145442130Y-90323033D01*
X145442125Y-90323025D01*
X145241196Y-90053131D01*
X145241191Y-90053126D01*
X145239044Y-90050241D01*
X145003187Y-89800247D01*
X145000429Y-89797933D01*
X145000424Y-89797928D01*
X144742661Y-89581640D01*
X144742660Y-89581639D01*
X144739902Y-89579325D01*
X144736884Y-89577340D01*
X144455769Y-89392447D01*
X144455761Y-89392442D01*
X144452750Y-89390462D01*
X144389299Y-89358595D01*
X144148851Y-89237837D01*
X144148841Y-89237832D01*
X144145614Y-89236212D01*
X144043552Y-89199064D01*
X143826036Y-89119895D01*
X143826028Y-89119892D01*
X143822647Y-89118662D01*
X143819148Y-89117832D01*
X143819139Y-89117830D01*
X143491723Y-89040231D01*
X143491707Y-89040228D01*
X143488217Y-89039401D01*
X143484652Y-89038984D01*
X143484639Y-89038982D01*
X143150416Y-88999917D01*
X143150413Y-88999916D01*
X143146847Y-88999500D01*
X142803153Y-88999500D01*
X142799587Y-88999916D01*
X142799583Y-88999917D01*
X142465360Y-89038982D01*
X142465344Y-89038984D01*
X142461783Y-89039401D01*
X142458295Y-89040227D01*
X142458276Y-89040231D01*
X142130860Y-89117830D01*
X142130846Y-89117833D01*
X142127353Y-89118662D01*
X142123976Y-89119891D01*
X142123963Y-89119895D01*
X141807787Y-89234974D01*
X141804386Y-89236212D01*
X141801164Y-89237829D01*
X141801148Y-89237837D01*
X141500479Y-89388840D01*
X141500474Y-89388842D01*
X141497250Y-89390462D01*
X141494245Y-89392437D01*
X141494230Y-89392447D01*
X141213115Y-89577340D01*
X141213107Y-89577345D01*
X141210098Y-89579325D01*
X141207347Y-89581632D01*
X141207338Y-89581640D01*
X140949575Y-89797928D01*
X140949561Y-89797940D01*
X140946813Y-89800247D01*
X140944338Y-89802869D01*
X140944333Y-89802875D01*
X140713430Y-90047618D01*
X140713424Y-90047624D01*
X140710956Y-90050241D01*
X140708816Y-90053115D01*
X140708803Y-90053131D01*
X140507874Y-90323025D01*
X140507861Y-90323044D01*
X140505716Y-90325926D01*
X140503917Y-90329040D01*
X140503907Y-90329057D01*
X140335673Y-90620448D01*
X140335667Y-90620458D01*
X140333869Y-90623574D01*
X140332445Y-90626874D01*
X140332440Y-90626885D01*
X140199162Y-90935855D01*
X140199155Y-90935873D01*
X140197738Y-90939159D01*
X140196710Y-90942589D01*
X140196705Y-90942606D01*
X140100198Y-91264965D01*
X140100194Y-91264978D01*
X140099166Y-91268415D01*
X140098540Y-91271960D01*
X140098540Y-91271964D01*
X140040112Y-91603321D01*
X140040110Y-91603334D01*
X140039484Y-91606887D01*
X140039274Y-91610490D01*
X140039273Y-91610500D01*
X140031073Y-91751294D01*
X140019500Y-91950000D01*
X127273021Y-91950000D01*
X127177856Y-91865692D01*
X127177854Y-91865690D01*
X127172240Y-91860717D01*
X127165595Y-91857229D01*
X127165593Y-91857228D01*
X127039006Y-91790789D01*
X127039002Y-91790787D01*
X127032365Y-91787304D01*
X127025087Y-91785510D01*
X127025084Y-91785509D01*
X126886267Y-91751294D01*
X126886260Y-91751293D01*
X126878985Y-91749500D01*
X126721015Y-91749500D01*
X126713740Y-91751292D01*
X126713732Y-91751294D01*
X126574915Y-91785509D01*
X126574909Y-91785510D01*
X126567635Y-91787304D01*
X126561000Y-91790786D01*
X126560993Y-91790789D01*
X126434406Y-91857228D01*
X126434400Y-91857231D01*
X126427760Y-91860717D01*
X126422148Y-91865687D01*
X126422143Y-91865692D01*
X126315127Y-91960499D01*
X126315122Y-91960503D01*
X126309517Y-91965470D01*
X126305262Y-91971634D01*
X126305257Y-91971640D01*
X126224043Y-92089300D01*
X126224040Y-92089303D01*
X126219780Y-92095477D01*
X126217120Y-92102488D01*
X126217118Y-92102494D01*
X126166423Y-92236167D01*
X126163763Y-92243182D01*
X126162859Y-92250622D01*
X126162858Y-92250629D01*
X126148588Y-92368161D01*
X126144722Y-92400000D01*
X89549218Y-92400000D01*
X89553625Y-92375004D01*
X89573609Y-92031891D01*
X89553625Y-91688778D01*
X89493943Y-91350306D01*
X89395371Y-91021050D01*
X89360046Y-90939159D01*
X89260668Y-90708776D01*
X89259240Y-90705465D01*
X89087393Y-90407817D01*
X89085239Y-90404924D01*
X89085234Y-90404916D01*
X88884305Y-90135022D01*
X88884300Y-90135017D01*
X88882153Y-90132132D01*
X88646296Y-89882138D01*
X88643538Y-89879824D01*
X88643533Y-89879819D01*
X88385770Y-89663531D01*
X88385769Y-89663530D01*
X88383011Y-89661216D01*
X88255484Y-89577340D01*
X88098878Y-89474338D01*
X88098870Y-89474333D01*
X88095859Y-89472353D01*
X87936754Y-89392447D01*
X87791960Y-89319728D01*
X87791950Y-89319723D01*
X87788723Y-89318103D01*
X87686661Y-89280955D01*
X87469145Y-89201786D01*
X87469137Y-89201783D01*
X87465756Y-89200553D01*
X87462257Y-89199723D01*
X87462248Y-89199721D01*
X87134832Y-89122122D01*
X87134816Y-89122119D01*
X87131326Y-89121292D01*
X87127761Y-89120875D01*
X87127748Y-89120873D01*
X86793525Y-89081808D01*
X86793522Y-89081807D01*
X86789956Y-89081391D01*
X86446262Y-89081391D01*
X86442696Y-89081807D01*
X86442692Y-89081808D01*
X86108469Y-89120873D01*
X86108453Y-89120875D01*
X86104892Y-89121292D01*
X86101404Y-89122118D01*
X86101385Y-89122122D01*
X85773969Y-89199721D01*
X85773955Y-89199724D01*
X85770462Y-89200553D01*
X85767085Y-89201782D01*
X85767072Y-89201786D01*
X85450896Y-89316865D01*
X85447495Y-89318103D01*
X85444273Y-89319720D01*
X85444257Y-89319728D01*
X85143588Y-89470731D01*
X85143583Y-89470733D01*
X85140359Y-89472353D01*
X85137354Y-89474328D01*
X85137339Y-89474338D01*
X84856224Y-89659231D01*
X84856216Y-89659236D01*
X84853207Y-89661216D01*
X84850456Y-89663523D01*
X84850447Y-89663531D01*
X84592684Y-89879819D01*
X84592670Y-89879831D01*
X84589922Y-89882138D01*
X84587447Y-89884760D01*
X84587442Y-89884766D01*
X84356539Y-90129509D01*
X84356533Y-90129515D01*
X84354065Y-90132132D01*
X84351925Y-90135006D01*
X84351912Y-90135022D01*
X84150983Y-90404916D01*
X84150970Y-90404935D01*
X84148825Y-90407817D01*
X84147026Y-90410931D01*
X84147016Y-90410948D01*
X83978782Y-90702339D01*
X83978776Y-90702349D01*
X83976978Y-90705465D01*
X83975554Y-90708765D01*
X83975549Y-90708776D01*
X83842271Y-91017746D01*
X83842264Y-91017764D01*
X83840847Y-91021050D01*
X83839819Y-91024480D01*
X83839814Y-91024497D01*
X83743307Y-91346856D01*
X83743303Y-91346869D01*
X83742275Y-91350306D01*
X83741649Y-91353851D01*
X83741649Y-91353855D01*
X83683221Y-91685212D01*
X83683219Y-91685225D01*
X83682593Y-91688778D01*
X83682383Y-91692381D01*
X83682382Y-91692391D01*
X83664466Y-92000000D01*
X83662609Y-92031891D01*
X82511360Y-92031891D01*
X82510017Y-92002843D01*
X82509886Y-91997134D01*
X82510731Y-88350000D01*
X119444750Y-88350000D01*
X119463670Y-88493709D01*
X119519139Y-88627625D01*
X119607379Y-88742621D01*
X119722375Y-88830861D01*
X119856291Y-88886330D01*
X120000000Y-88905250D01*
X120143709Y-88886330D01*
X120277625Y-88830861D01*
X120392621Y-88742621D01*
X120480861Y-88627625D01*
X120536330Y-88493709D01*
X120555250Y-88350000D01*
X120536330Y-88206291D01*
X120480861Y-88072375D01*
X120392621Y-87957379D01*
X120277625Y-87869139D01*
X120241592Y-87854214D01*
X120151223Y-87816782D01*
X120151220Y-87816781D01*
X120143709Y-87813670D01*
X120135649Y-87812608D01*
X120135646Y-87812608D01*
X120008059Y-87795811D01*
X120000000Y-87794750D01*
X119991941Y-87795811D01*
X119864353Y-87812608D01*
X119864348Y-87812609D01*
X119856291Y-87813670D01*
X119848781Y-87816780D01*
X119848776Y-87816782D01*
X119729885Y-87866028D01*
X119729883Y-87866029D01*
X119722375Y-87869139D01*
X119715933Y-87874082D01*
X119715928Y-87874085D01*
X119613821Y-87952435D01*
X119613817Y-87952438D01*
X119607379Y-87957379D01*
X119602438Y-87963817D01*
X119602435Y-87963821D01*
X119524085Y-88065928D01*
X119524082Y-88065933D01*
X119519139Y-88072375D01*
X119516029Y-88079883D01*
X119516028Y-88079885D01*
X119466782Y-88198776D01*
X119466780Y-88198781D01*
X119463670Y-88206291D01*
X119462609Y-88214348D01*
X119462608Y-88214353D01*
X119445811Y-88341941D01*
X119444750Y-88350000D01*
X82510731Y-88350000D01*
X82510905Y-87600000D01*
X124344722Y-87600000D01*
X124345626Y-87607445D01*
X124362858Y-87749370D01*
X124362859Y-87749375D01*
X124363763Y-87756818D01*
X124366422Y-87763831D01*
X124366423Y-87763832D01*
X124406360Y-87869139D01*
X124419780Y-87904523D01*
X124509517Y-88034530D01*
X124627760Y-88139283D01*
X124767635Y-88212696D01*
X124921015Y-88250500D01*
X125071485Y-88250500D01*
X125078985Y-88250500D01*
X125232365Y-88212696D01*
X125372240Y-88139283D01*
X125490483Y-88034530D01*
X125580220Y-87904523D01*
X125636237Y-87756818D01*
X125655278Y-87600000D01*
X125636237Y-87443182D01*
X125580220Y-87295477D01*
X125490483Y-87165470D01*
X125372240Y-87060717D01*
X125365595Y-87057229D01*
X125365593Y-87057228D01*
X125239006Y-86990789D01*
X125239002Y-86990787D01*
X125232365Y-86987304D01*
X125225087Y-86985510D01*
X125225084Y-86985509D01*
X125086267Y-86951294D01*
X125086260Y-86951293D01*
X125078985Y-86949500D01*
X124921015Y-86949500D01*
X124913740Y-86951292D01*
X124913732Y-86951294D01*
X124774915Y-86985509D01*
X124774909Y-86985510D01*
X124767635Y-86987304D01*
X124761000Y-86990786D01*
X124760993Y-86990789D01*
X124634406Y-87057228D01*
X124634400Y-87057231D01*
X124627760Y-87060717D01*
X124622148Y-87065687D01*
X124622143Y-87065692D01*
X124515127Y-87160499D01*
X124515122Y-87160503D01*
X124509517Y-87165470D01*
X124505262Y-87171634D01*
X124505257Y-87171640D01*
X124424043Y-87289300D01*
X124424040Y-87289303D01*
X124419780Y-87295477D01*
X124417120Y-87302488D01*
X124417118Y-87302494D01*
X124366423Y-87436167D01*
X124363763Y-87443182D01*
X124362859Y-87450622D01*
X124362858Y-87450629D01*
X124346070Y-87588896D01*
X124344722Y-87600000D01*
X82510905Y-87600000D01*
X82511346Y-85697398D01*
X91195746Y-85697398D01*
X91196026Y-85703282D01*
X91196026Y-85703289D01*
X91200757Y-85802602D01*
X91205746Y-85907330D01*
X91207135Y-85913058D01*
X91207137Y-85913067D01*
X91229389Y-86004788D01*
X91255296Y-86111576D01*
X91257749Y-86116947D01*
X91338857Y-86294550D01*
X91342604Y-86302753D01*
X91346031Y-86307566D01*
X91346032Y-86307567D01*
X91423783Y-86416754D01*
X91464514Y-86473952D01*
X91468791Y-86478030D01*
X91604466Y-86607396D01*
X91616622Y-86618986D01*
X91793428Y-86732613D01*
X91798911Y-86734808D01*
X91798913Y-86734809D01*
X91983060Y-86808530D01*
X91988543Y-86810725D01*
X92194915Y-86850500D01*
X92649471Y-86850500D01*
X92652425Y-86850500D01*
X92809218Y-86835528D01*
X93010875Y-86776316D01*
X93197682Y-86680011D01*
X93362886Y-86550092D01*
X93500519Y-86391256D01*
X93556336Y-86294578D01*
X98399500Y-86294578D01*
X98399501Y-86297872D01*
X98399853Y-86301150D01*
X98399854Y-86301161D01*
X98405079Y-86349768D01*
X98405080Y-86349773D01*
X98405909Y-86357483D01*
X98408619Y-86364749D01*
X98408620Y-86364753D01*
X98442217Y-86454831D01*
X98456204Y-86492331D01*
X98461518Y-86499430D01*
X98461519Y-86499431D01*
X98502178Y-86553745D01*
X98542454Y-86607546D01*
X98657669Y-86693796D01*
X98792517Y-86744091D01*
X98852127Y-86750500D01*
X100147872Y-86750499D01*
X100207483Y-86744091D01*
X100342331Y-86693796D01*
X100457546Y-86607546D01*
X100543796Y-86492331D01*
X100594091Y-86357483D01*
X100600500Y-86297873D01*
X100600500Y-85702425D01*
X100899500Y-85702425D01*
X100899779Y-85705354D01*
X100899780Y-85705360D01*
X100909065Y-85802602D01*
X100914472Y-85859218D01*
X100916137Y-85864888D01*
X100958931Y-86010633D01*
X100973684Y-86060875D01*
X101069989Y-86247682D01*
X101073642Y-86252327D01*
X101162054Y-86364752D01*
X101199908Y-86412886D01*
X101358744Y-86550519D01*
X101540756Y-86655604D01*
X101739367Y-86724344D01*
X101947398Y-86754254D01*
X102157330Y-86744254D01*
X102361576Y-86694704D01*
X102552753Y-86607396D01*
X102723952Y-86485486D01*
X102868986Y-86333378D01*
X102982613Y-86156572D01*
X103060725Y-85961457D01*
X103100500Y-85755085D01*
X103100500Y-85297575D01*
X103085528Y-85140782D01*
X103026316Y-84939125D01*
X102930011Y-84752318D01*
X102800092Y-84587114D01*
X102641256Y-84449481D01*
X102459244Y-84344396D01*
X102453660Y-84342463D01*
X102453655Y-84342461D01*
X102266214Y-84277587D01*
X102266208Y-84277585D01*
X102260633Y-84275656D01*
X102254794Y-84274816D01*
X102254788Y-84274815D01*
X102058441Y-84246585D01*
X102058435Y-84246584D01*
X102052602Y-84245746D01*
X102046716Y-84246026D01*
X102046710Y-84246026D01*
X101848567Y-84255465D01*
X101848565Y-84255465D01*
X101842670Y-84255746D01*
X101836942Y-84257135D01*
X101836932Y-84257137D01*
X101644160Y-84303904D01*
X101644155Y-84303905D01*
X101638424Y-84305296D01*
X101633054Y-84307747D01*
X101633052Y-84307749D01*
X101452621Y-84390149D01*
X101452614Y-84390152D01*
X101447247Y-84392604D01*
X101442437Y-84396028D01*
X101442432Y-84396032D01*
X101280865Y-84511083D01*
X101280859Y-84511087D01*
X101276048Y-84514514D01*
X101271974Y-84518786D01*
X101271969Y-84518791D01*
X101135088Y-84662348D01*
X101135082Y-84662355D01*
X101131014Y-84666622D01*
X101127822Y-84671588D01*
X101127821Y-84671590D01*
X101020582Y-84838455D01*
X101020578Y-84838462D01*
X101017387Y-84843428D01*
X101015195Y-84848903D01*
X101015190Y-84848913D01*
X100941469Y-85033060D01*
X100941466Y-85033069D01*
X100939275Y-85038543D01*
X100938158Y-85044334D01*
X100938156Y-85044344D01*
X100900617Y-85239117D01*
X100899500Y-85244915D01*
X100899500Y-85702425D01*
X100600500Y-85702425D01*
X100600499Y-84702128D01*
X100594091Y-84642517D01*
X100543796Y-84507669D01*
X100457546Y-84392454D01*
X100401501Y-84350499D01*
X100349431Y-84311519D01*
X100349430Y-84311518D01*
X100342331Y-84306204D01*
X100265605Y-84277587D01*
X100214752Y-84258620D01*
X100214750Y-84258619D01*
X100207483Y-84255909D01*
X100199770Y-84255079D01*
X100199767Y-84255079D01*
X100151180Y-84249855D01*
X100151169Y-84249854D01*
X100147873Y-84249500D01*
X100144550Y-84249500D01*
X98855439Y-84249500D01*
X98855420Y-84249500D01*
X98852128Y-84249501D01*
X98848850Y-84249853D01*
X98848838Y-84249854D01*
X98800231Y-84255079D01*
X98800225Y-84255080D01*
X98792517Y-84255909D01*
X98785252Y-84258618D01*
X98785246Y-84258620D01*
X98665980Y-84303104D01*
X98665978Y-84303104D01*
X98657669Y-84306204D01*
X98650572Y-84311516D01*
X98650568Y-84311519D01*
X98549550Y-84387141D01*
X98549546Y-84387144D01*
X98542454Y-84392454D01*
X98537144Y-84399546D01*
X98537141Y-84399550D01*
X98461519Y-84500568D01*
X98461516Y-84500572D01*
X98456204Y-84507669D01*
X98453104Y-84515978D01*
X98453104Y-84515980D01*
X98408620Y-84635247D01*
X98408619Y-84635250D01*
X98405909Y-84642517D01*
X98405079Y-84650227D01*
X98405079Y-84650232D01*
X98399855Y-84698819D01*
X98399854Y-84698831D01*
X98399500Y-84702127D01*
X98399500Y-84705448D01*
X98399500Y-84705449D01*
X98399500Y-86294560D01*
X98399500Y-86294578D01*
X93556336Y-86294578D01*
X93605604Y-86209244D01*
X93674344Y-86010633D01*
X93704254Y-85802602D01*
X93694254Y-85592670D01*
X93644704Y-85388424D01*
X93557396Y-85197247D01*
X93435486Y-85026048D01*
X93350262Y-84944787D01*
X93287651Y-84885088D01*
X93287649Y-84885086D01*
X93283378Y-84881014D01*
X93184210Y-84817282D01*
X93111544Y-84770582D01*
X93111541Y-84770580D01*
X93106572Y-84767387D01*
X93101092Y-84765193D01*
X93101086Y-84765190D01*
X92916939Y-84691469D01*
X92916932Y-84691467D01*
X92911457Y-84689275D01*
X92905662Y-84688158D01*
X92905655Y-84688156D01*
X92710882Y-84650617D01*
X92710879Y-84650616D01*
X92705085Y-84649500D01*
X92247575Y-84649500D01*
X92244646Y-84649779D01*
X92244639Y-84649780D01*
X92096662Y-84663910D01*
X92096656Y-84663911D01*
X92090782Y-84664472D01*
X92085112Y-84666136D01*
X92085111Y-84666137D01*
X91894787Y-84722021D01*
X91894782Y-84722022D01*
X91889125Y-84723684D01*
X91883884Y-84726385D01*
X91883881Y-84726387D01*
X91707568Y-84817282D01*
X91707564Y-84817284D01*
X91702318Y-84819989D01*
X91697676Y-84823638D01*
X91697672Y-84823642D01*
X91541759Y-84946254D01*
X91541752Y-84946260D01*
X91537114Y-84949908D01*
X91533250Y-84954367D01*
X91533245Y-84954372D01*
X91455284Y-85044344D01*
X91399481Y-85108744D01*
X91396530Y-85113854D01*
X91396528Y-85113858D01*
X91297352Y-85285635D01*
X91297349Y-85285640D01*
X91294396Y-85290756D01*
X91292465Y-85296335D01*
X91292461Y-85296344D01*
X91227587Y-85483785D01*
X91227584Y-85483794D01*
X91225656Y-85489367D01*
X91224816Y-85495203D01*
X91224815Y-85495211D01*
X91196585Y-85691558D01*
X91196584Y-85691564D01*
X91195746Y-85697398D01*
X82511346Y-85697398D01*
X82511764Y-83894578D01*
X91199500Y-83894578D01*
X91199501Y-83897872D01*
X91199853Y-83901150D01*
X91199854Y-83901161D01*
X91205079Y-83949768D01*
X91205080Y-83949773D01*
X91205909Y-83957483D01*
X91208619Y-83964749D01*
X91208620Y-83964753D01*
X91242217Y-84054831D01*
X91256204Y-84092331D01*
X91342454Y-84207546D01*
X91457669Y-84293796D01*
X91592517Y-84344091D01*
X91652127Y-84350500D01*
X93247872Y-84350499D01*
X93307483Y-84344091D01*
X93442331Y-84293796D01*
X93557546Y-84207546D01*
X93643796Y-84092331D01*
X93694091Y-83957483D01*
X93700500Y-83897873D01*
X93700499Y-83200000D01*
X115794750Y-83200000D01*
X115795811Y-83208059D01*
X115808976Y-83308059D01*
X115813670Y-83343709D01*
X115869139Y-83477625D01*
X115957379Y-83592621D01*
X116072375Y-83680861D01*
X116206291Y-83736330D01*
X116350000Y-83755250D01*
X116493709Y-83736330D01*
X116627625Y-83680861D01*
X116742621Y-83592621D01*
X116830861Y-83477625D01*
X116886330Y-83343709D01*
X116892085Y-83300000D01*
X118844750Y-83300000D01*
X118845811Y-83308059D01*
X118850504Y-83343709D01*
X118863670Y-83443709D01*
X118919139Y-83577625D01*
X118924084Y-83584069D01*
X118924085Y-83584071D01*
X119002435Y-83686178D01*
X119007379Y-83692621D01*
X119122375Y-83780861D01*
X119256291Y-83836330D01*
X119400000Y-83855250D01*
X119543709Y-83836330D01*
X119677625Y-83780861D01*
X119792621Y-83692621D01*
X119880861Y-83577625D01*
X119936330Y-83443709D01*
X119955250Y-83300000D01*
X119936330Y-83156291D01*
X119880861Y-83022375D01*
X119792621Y-82907379D01*
X119677625Y-82819139D01*
X119637297Y-82802435D01*
X119551223Y-82766782D01*
X119551220Y-82766781D01*
X119543709Y-82763670D01*
X119535649Y-82762608D01*
X119535646Y-82762608D01*
X119408059Y-82745811D01*
X119400000Y-82744750D01*
X119391941Y-82745811D01*
X119264353Y-82762608D01*
X119264348Y-82762609D01*
X119256291Y-82763670D01*
X119248781Y-82766780D01*
X119248776Y-82766782D01*
X119129885Y-82816028D01*
X119129883Y-82816029D01*
X119122375Y-82819139D01*
X119115933Y-82824082D01*
X119115928Y-82824085D01*
X119013821Y-82902435D01*
X119013817Y-82902438D01*
X119007379Y-82907379D01*
X119002438Y-82913817D01*
X119002435Y-82913821D01*
X118924085Y-83015928D01*
X118924082Y-83015933D01*
X118919139Y-83022375D01*
X118916029Y-83029883D01*
X118916028Y-83029885D01*
X118866782Y-83148776D01*
X118866780Y-83148781D01*
X118863670Y-83156291D01*
X118862609Y-83164348D01*
X118862608Y-83164353D01*
X118857915Y-83200000D01*
X118844750Y-83300000D01*
X116892085Y-83300000D01*
X116905250Y-83200000D01*
X116886330Y-83056291D01*
X116830861Y-82922375D01*
X116742621Y-82807379D01*
X116684275Y-82762608D01*
X116634071Y-82724085D01*
X116634069Y-82724084D01*
X116627625Y-82719139D01*
X116591592Y-82704214D01*
X116501223Y-82666782D01*
X116501220Y-82666781D01*
X116493709Y-82663670D01*
X116485649Y-82662608D01*
X116485646Y-82662608D01*
X116358059Y-82645811D01*
X116350000Y-82644750D01*
X116341941Y-82645811D01*
X116214353Y-82662608D01*
X116214348Y-82662609D01*
X116206291Y-82663670D01*
X116198781Y-82666780D01*
X116198776Y-82666782D01*
X116079885Y-82716028D01*
X116079883Y-82716029D01*
X116072375Y-82719139D01*
X116065933Y-82724082D01*
X116065928Y-82724085D01*
X115963821Y-82802435D01*
X115963817Y-82802438D01*
X115957379Y-82807379D01*
X115952438Y-82813817D01*
X115952435Y-82813821D01*
X115874085Y-82915928D01*
X115874082Y-82915933D01*
X115869139Y-82922375D01*
X115866029Y-82929883D01*
X115866028Y-82929885D01*
X115816782Y-83048776D01*
X115816780Y-83048781D01*
X115813670Y-83056291D01*
X115812609Y-83064348D01*
X115812608Y-83064353D01*
X115799443Y-83164353D01*
X115794750Y-83200000D01*
X93700499Y-83200000D01*
X93700499Y-82602128D01*
X93694091Y-82542517D01*
X93643796Y-82407669D01*
X93557546Y-82292454D01*
X93442331Y-82206204D01*
X93307483Y-82155909D01*
X93299770Y-82155079D01*
X93299767Y-82155079D01*
X93251180Y-82149855D01*
X93251169Y-82149854D01*
X93247873Y-82149500D01*
X93244550Y-82149500D01*
X91655439Y-82149500D01*
X91655420Y-82149500D01*
X91652128Y-82149501D01*
X91648850Y-82149853D01*
X91648838Y-82149854D01*
X91600231Y-82155079D01*
X91600225Y-82155080D01*
X91592517Y-82155909D01*
X91585252Y-82158618D01*
X91585246Y-82158620D01*
X91465980Y-82203104D01*
X91465978Y-82203104D01*
X91457669Y-82206204D01*
X91450572Y-82211516D01*
X91450568Y-82211519D01*
X91349550Y-82287141D01*
X91349546Y-82287144D01*
X91342454Y-82292454D01*
X91337144Y-82299546D01*
X91337141Y-82299550D01*
X91261519Y-82400568D01*
X91261516Y-82400572D01*
X91256204Y-82407669D01*
X91253104Y-82415978D01*
X91253104Y-82415980D01*
X91208620Y-82535247D01*
X91208619Y-82535250D01*
X91205909Y-82542517D01*
X91205079Y-82550227D01*
X91205079Y-82550232D01*
X91199855Y-82598819D01*
X91199854Y-82598831D01*
X91199500Y-82602127D01*
X91199500Y-82605448D01*
X91199500Y-82605449D01*
X91199500Y-83894560D01*
X91199500Y-83894578D01*
X82511764Y-83894578D01*
X82512411Y-81100000D01*
X123844722Y-81100000D01*
X123845626Y-81107445D01*
X123862858Y-81249370D01*
X123862859Y-81249375D01*
X123863763Y-81256818D01*
X123919780Y-81404523D01*
X124009517Y-81534530D01*
X124127760Y-81639283D01*
X124267635Y-81712696D01*
X124421015Y-81750500D01*
X124571485Y-81750500D01*
X124578985Y-81750500D01*
X124732365Y-81712696D01*
X124872240Y-81639283D01*
X124990483Y-81534530D01*
X125080220Y-81404523D01*
X125136237Y-81256818D01*
X125155278Y-81100000D01*
X126244722Y-81100000D01*
X126245626Y-81107445D01*
X126262858Y-81249370D01*
X126262859Y-81249375D01*
X126263763Y-81256818D01*
X126319780Y-81404523D01*
X126409517Y-81534530D01*
X126527760Y-81639283D01*
X126667635Y-81712696D01*
X126821015Y-81750500D01*
X126971485Y-81750500D01*
X126978985Y-81750500D01*
X127132365Y-81712696D01*
X127272240Y-81639283D01*
X127390483Y-81534530D01*
X127480220Y-81404523D01*
X127536237Y-81256818D01*
X127555278Y-81100000D01*
X127536237Y-80943182D01*
X127480220Y-80795477D01*
X127390483Y-80665470D01*
X127272240Y-80560717D01*
X127265595Y-80557229D01*
X127265593Y-80557228D01*
X127139006Y-80490789D01*
X127139002Y-80490787D01*
X127132365Y-80487304D01*
X127125087Y-80485510D01*
X127125084Y-80485509D01*
X126986267Y-80451294D01*
X126986260Y-80451293D01*
X126978985Y-80449500D01*
X126821015Y-80449500D01*
X126813740Y-80451292D01*
X126813732Y-80451294D01*
X126674915Y-80485509D01*
X126674909Y-80485510D01*
X126667635Y-80487304D01*
X126661000Y-80490786D01*
X126660993Y-80490789D01*
X126534406Y-80557228D01*
X126534400Y-80557231D01*
X126527760Y-80560717D01*
X126522148Y-80565687D01*
X126522143Y-80565692D01*
X126415127Y-80660499D01*
X126415122Y-80660503D01*
X126409517Y-80665470D01*
X126405262Y-80671634D01*
X126405257Y-80671640D01*
X126324043Y-80789300D01*
X126324040Y-80789303D01*
X126319780Y-80795477D01*
X126317120Y-80802488D01*
X126317118Y-80802494D01*
X126266423Y-80936167D01*
X126263763Y-80943182D01*
X126262859Y-80950622D01*
X126262858Y-80950629D01*
X126246070Y-81088896D01*
X126244722Y-81100000D01*
X125155278Y-81100000D01*
X125136237Y-80943182D01*
X125080220Y-80795477D01*
X124990483Y-80665470D01*
X124872240Y-80560717D01*
X124865595Y-80557229D01*
X124865593Y-80557228D01*
X124739006Y-80490789D01*
X124739002Y-80490787D01*
X124732365Y-80487304D01*
X124725087Y-80485510D01*
X124725084Y-80485509D01*
X124586267Y-80451294D01*
X124586260Y-80451293D01*
X124578985Y-80449500D01*
X124421015Y-80449500D01*
X124413740Y-80451292D01*
X124413732Y-80451294D01*
X124274915Y-80485509D01*
X124274909Y-80485510D01*
X124267635Y-80487304D01*
X124261000Y-80490786D01*
X124260993Y-80490789D01*
X124134406Y-80557228D01*
X124134400Y-80557231D01*
X124127760Y-80560717D01*
X124122148Y-80565687D01*
X124122143Y-80565692D01*
X124015127Y-80660499D01*
X124015122Y-80660503D01*
X124009517Y-80665470D01*
X124005262Y-80671634D01*
X124005257Y-80671640D01*
X123924043Y-80789300D01*
X123924040Y-80789303D01*
X123919780Y-80795477D01*
X123917120Y-80802488D01*
X123917118Y-80802494D01*
X123866423Y-80936167D01*
X123863763Y-80943182D01*
X123862859Y-80950622D01*
X123862858Y-80950629D01*
X123846070Y-81088896D01*
X123844722Y-81100000D01*
X82512411Y-81100000D01*
X82513141Y-77950000D01*
X98994750Y-77950000D01*
X99013670Y-78093709D01*
X99069139Y-78227625D01*
X99157379Y-78342621D01*
X99272375Y-78430861D01*
X99406291Y-78486330D01*
X99550000Y-78505250D01*
X99693709Y-78486330D01*
X99827625Y-78430861D01*
X99942621Y-78342621D01*
X100030861Y-78227625D01*
X100086330Y-78093709D01*
X100105250Y-77950000D01*
X100086330Y-77806291D01*
X100030861Y-77672375D01*
X99942621Y-77557379D01*
X99933656Y-77550500D01*
X99834071Y-77474085D01*
X99834069Y-77474084D01*
X99827625Y-77469139D01*
X99763966Y-77442771D01*
X99701223Y-77416782D01*
X99701220Y-77416781D01*
X99693709Y-77413670D01*
X99685649Y-77412608D01*
X99685646Y-77412608D01*
X99558059Y-77395811D01*
X99550000Y-77394750D01*
X99541941Y-77395811D01*
X99414353Y-77412608D01*
X99414348Y-77412609D01*
X99406291Y-77413670D01*
X99398781Y-77416780D01*
X99398776Y-77416782D01*
X99279885Y-77466028D01*
X99279883Y-77466029D01*
X99272375Y-77469139D01*
X99265933Y-77474082D01*
X99265928Y-77474085D01*
X99163821Y-77552435D01*
X99163817Y-77552438D01*
X99157379Y-77557379D01*
X99152438Y-77563817D01*
X99152435Y-77563821D01*
X99074085Y-77665928D01*
X99074082Y-77665933D01*
X99069139Y-77672375D01*
X99066029Y-77679883D01*
X99066028Y-77679885D01*
X99016782Y-77798776D01*
X99016780Y-77798781D01*
X99013670Y-77806291D01*
X99012609Y-77814348D01*
X99012608Y-77814353D01*
X98995811Y-77941941D01*
X98994750Y-77950000D01*
X82513141Y-77950000D01*
X82513431Y-76697398D01*
X91195746Y-76697398D01*
X91196026Y-76703282D01*
X91196026Y-76703289D01*
X91200757Y-76802602D01*
X91205746Y-76907330D01*
X91207135Y-76913058D01*
X91207137Y-76913067D01*
X91243713Y-77063832D01*
X91255296Y-77111576D01*
X91342604Y-77302753D01*
X91346031Y-77307566D01*
X91346032Y-77307567D01*
X91423803Y-77416782D01*
X91464514Y-77473952D01*
X91616622Y-77618986D01*
X91793428Y-77732613D01*
X91798911Y-77734808D01*
X91798913Y-77734809D01*
X91958696Y-77798776D01*
X91988543Y-77810725D01*
X92194915Y-77850500D01*
X92649471Y-77850500D01*
X92652425Y-77850500D01*
X92809218Y-77835528D01*
X93010875Y-77776316D01*
X93197682Y-77680011D01*
X93362886Y-77550092D01*
X93500519Y-77391256D01*
X93605604Y-77209244D01*
X93674344Y-77010633D01*
X93690250Y-76900000D01*
X127844722Y-76900000D01*
X127845626Y-76907445D01*
X127862858Y-77049370D01*
X127862859Y-77049375D01*
X127863763Y-77056818D01*
X127919780Y-77204523D01*
X127924043Y-77210699D01*
X127990905Y-77307567D01*
X128009517Y-77334530D01*
X128015126Y-77339499D01*
X128015127Y-77339500D01*
X128098848Y-77413670D01*
X128127760Y-77439283D01*
X128267635Y-77512696D01*
X128421015Y-77550500D01*
X128571485Y-77550500D01*
X128578985Y-77550500D01*
X128732365Y-77512696D01*
X128872240Y-77439283D01*
X128990483Y-77334530D01*
X129080220Y-77204523D01*
X129136237Y-77056818D01*
X129155278Y-76900000D01*
X129136237Y-76743182D01*
X129080220Y-76595477D01*
X128990483Y-76465470D01*
X128984872Y-76460499D01*
X128877856Y-76365692D01*
X128877854Y-76365690D01*
X128872240Y-76360717D01*
X128865595Y-76357229D01*
X128865593Y-76357228D01*
X128739006Y-76290789D01*
X128739002Y-76290787D01*
X128732365Y-76287304D01*
X128725087Y-76285510D01*
X128725084Y-76285509D01*
X128586267Y-76251294D01*
X128586260Y-76251293D01*
X128578985Y-76249500D01*
X128421015Y-76249500D01*
X128413740Y-76251292D01*
X128413732Y-76251294D01*
X128274915Y-76285509D01*
X128274909Y-76285510D01*
X128267635Y-76287304D01*
X128261000Y-76290786D01*
X128260993Y-76290789D01*
X128134406Y-76357228D01*
X128134400Y-76357231D01*
X128127760Y-76360717D01*
X128122148Y-76365687D01*
X128122143Y-76365692D01*
X128015127Y-76460499D01*
X128015122Y-76460503D01*
X128009517Y-76465470D01*
X128005262Y-76471634D01*
X128005257Y-76471640D01*
X127924043Y-76589300D01*
X127924040Y-76589303D01*
X127919780Y-76595477D01*
X127917120Y-76602488D01*
X127917118Y-76602494D01*
X127866423Y-76736167D01*
X127863763Y-76743182D01*
X127862859Y-76750622D01*
X127862858Y-76750629D01*
X127856548Y-76802602D01*
X127844722Y-76900000D01*
X93690250Y-76900000D01*
X93704254Y-76802602D01*
X93694254Y-76592670D01*
X93644704Y-76388424D01*
X93557396Y-76197247D01*
X93523752Y-76150000D01*
X101294750Y-76150000D01*
X101295811Y-76158059D01*
X101307849Y-76249500D01*
X101313670Y-76293709D01*
X101316781Y-76301220D01*
X101316782Y-76301223D01*
X101352902Y-76388424D01*
X101369139Y-76427625D01*
X101374084Y-76434069D01*
X101374085Y-76434071D01*
X101421000Y-76495211D01*
X101457379Y-76542621D01*
X101572375Y-76630861D01*
X101706291Y-76686330D01*
X101850000Y-76705250D01*
X101993709Y-76686330D01*
X102127625Y-76630861D01*
X102242621Y-76542621D01*
X102330861Y-76427625D01*
X102386330Y-76293709D01*
X102405250Y-76150000D01*
X102386330Y-76006291D01*
X102330861Y-75872375D01*
X102242621Y-75757379D01*
X102153867Y-75689275D01*
X102134071Y-75674085D01*
X102134069Y-75674084D01*
X102127625Y-75669139D01*
X102080212Y-75649500D01*
X102001223Y-75616782D01*
X102001220Y-75616781D01*
X101993709Y-75613670D01*
X101985649Y-75612608D01*
X101985646Y-75612608D01*
X101858059Y-75595811D01*
X101850000Y-75594750D01*
X101841941Y-75595811D01*
X101714353Y-75612608D01*
X101714348Y-75612609D01*
X101706291Y-75613670D01*
X101698781Y-75616780D01*
X101698776Y-75616782D01*
X101579885Y-75666028D01*
X101579883Y-75666029D01*
X101572375Y-75669139D01*
X101565933Y-75674082D01*
X101565928Y-75674085D01*
X101463821Y-75752435D01*
X101463817Y-75752438D01*
X101457379Y-75757379D01*
X101452438Y-75763817D01*
X101452435Y-75763821D01*
X101374085Y-75865928D01*
X101374082Y-75865933D01*
X101369139Y-75872375D01*
X101366029Y-75879883D01*
X101366028Y-75879885D01*
X101316782Y-75998776D01*
X101316780Y-75998781D01*
X101313670Y-76006291D01*
X101312609Y-76014348D01*
X101312608Y-76014353D01*
X101299508Y-76113858D01*
X101294750Y-76150000D01*
X93523752Y-76150000D01*
X93435486Y-76026048D01*
X93283378Y-75881014D01*
X93184210Y-75817282D01*
X93111544Y-75770582D01*
X93111541Y-75770580D01*
X93106572Y-75767387D01*
X93101092Y-75765193D01*
X93101086Y-75765190D01*
X92916939Y-75691469D01*
X92916932Y-75691467D01*
X92911457Y-75689275D01*
X92905662Y-75688158D01*
X92905655Y-75688156D01*
X92710882Y-75650617D01*
X92710879Y-75650616D01*
X92705085Y-75649500D01*
X92247575Y-75649500D01*
X92244646Y-75649779D01*
X92244639Y-75649780D01*
X92096662Y-75663910D01*
X92096656Y-75663911D01*
X92090782Y-75664472D01*
X92085112Y-75666136D01*
X92085111Y-75666137D01*
X91894787Y-75722021D01*
X91894782Y-75722022D01*
X91889125Y-75723684D01*
X91883884Y-75726385D01*
X91883881Y-75726387D01*
X91707568Y-75817282D01*
X91707564Y-75817284D01*
X91702318Y-75819989D01*
X91697676Y-75823638D01*
X91697672Y-75823642D01*
X91541759Y-75946254D01*
X91541752Y-75946260D01*
X91537114Y-75949908D01*
X91533250Y-75954367D01*
X91533245Y-75954372D01*
X91403347Y-76104282D01*
X91399481Y-76108744D01*
X91396530Y-76113854D01*
X91396528Y-76113858D01*
X91297352Y-76285635D01*
X91297349Y-76285640D01*
X91294396Y-76290756D01*
X91292465Y-76296335D01*
X91292461Y-76296344D01*
X91227587Y-76483785D01*
X91227584Y-76483794D01*
X91225656Y-76489367D01*
X91224816Y-76495203D01*
X91224815Y-76495211D01*
X91196585Y-76691558D01*
X91196584Y-76691564D01*
X91195746Y-76697398D01*
X82513431Y-76697398D01*
X82513849Y-74894578D01*
X91199500Y-74894578D01*
X91199501Y-74897872D01*
X91199853Y-74901150D01*
X91199854Y-74901161D01*
X91205079Y-74949768D01*
X91205080Y-74949773D01*
X91205909Y-74957483D01*
X91208619Y-74964749D01*
X91208620Y-74964753D01*
X91242217Y-75054831D01*
X91256204Y-75092331D01*
X91261518Y-75099430D01*
X91261519Y-75099431D01*
X91322477Y-75180861D01*
X91342454Y-75207546D01*
X91457669Y-75293796D01*
X91592517Y-75344091D01*
X91652127Y-75350500D01*
X93247872Y-75350499D01*
X93307483Y-75344091D01*
X93442331Y-75293796D01*
X93557546Y-75207546D01*
X93643796Y-75092331D01*
X93694091Y-74957483D01*
X93700500Y-74897873D01*
X93700500Y-74700000D01*
X106644750Y-74700000D01*
X106663670Y-74843709D01*
X106719139Y-74977625D01*
X106807379Y-75092621D01*
X106922375Y-75180861D01*
X107056291Y-75236330D01*
X107200000Y-75255250D01*
X107343709Y-75236330D01*
X107477625Y-75180861D01*
X107592621Y-75092621D01*
X107680861Y-74977625D01*
X107736330Y-74843709D01*
X107755250Y-74700000D01*
X107736330Y-74556291D01*
X107680861Y-74422375D01*
X107592621Y-74307379D01*
X107583005Y-74300000D01*
X127744722Y-74300000D01*
X127745626Y-74307445D01*
X127762858Y-74449370D01*
X127762859Y-74449375D01*
X127763763Y-74456818D01*
X127766422Y-74463831D01*
X127766423Y-74463832D01*
X127804545Y-74564353D01*
X127819780Y-74604523D01*
X127824043Y-74610699D01*
X127885682Y-74700000D01*
X127909517Y-74734530D01*
X128027760Y-74839283D01*
X128167635Y-74912696D01*
X128321015Y-74950500D01*
X128471485Y-74950500D01*
X128478985Y-74950500D01*
X128632365Y-74912696D01*
X128772240Y-74839283D01*
X128890483Y-74734530D01*
X128980220Y-74604523D01*
X129036237Y-74456818D01*
X129055278Y-74300000D01*
X129036237Y-74143182D01*
X128980220Y-73995477D01*
X128890483Y-73865470D01*
X128798602Y-73784071D01*
X128777856Y-73765692D01*
X128777854Y-73765690D01*
X128772240Y-73760717D01*
X128765595Y-73757229D01*
X128765593Y-73757228D01*
X128639006Y-73690789D01*
X128639002Y-73690787D01*
X128632365Y-73687304D01*
X128625087Y-73685510D01*
X128625084Y-73685509D01*
X128486267Y-73651294D01*
X128486260Y-73651293D01*
X128478985Y-73649500D01*
X128321015Y-73649500D01*
X128313740Y-73651292D01*
X128313732Y-73651294D01*
X128174915Y-73685509D01*
X128174909Y-73685510D01*
X128167635Y-73687304D01*
X128161000Y-73690786D01*
X128160993Y-73690789D01*
X128034406Y-73757228D01*
X128034400Y-73757231D01*
X128027760Y-73760717D01*
X128022148Y-73765687D01*
X128022143Y-73765692D01*
X127915127Y-73860499D01*
X127915122Y-73860503D01*
X127909517Y-73865470D01*
X127905262Y-73871634D01*
X127905257Y-73871640D01*
X127824043Y-73989300D01*
X127824040Y-73989303D01*
X127819780Y-73995477D01*
X127817120Y-74002488D01*
X127817118Y-74002494D01*
X127766423Y-74136167D01*
X127763763Y-74143182D01*
X127762859Y-74150622D01*
X127762858Y-74150629D01*
X127746070Y-74288896D01*
X127744722Y-74300000D01*
X107583005Y-74300000D01*
X107477625Y-74219139D01*
X107441592Y-74204214D01*
X107351223Y-74166782D01*
X107351220Y-74166781D01*
X107343709Y-74163670D01*
X107335649Y-74162608D01*
X107335646Y-74162608D01*
X107208059Y-74145811D01*
X107200000Y-74144750D01*
X107191941Y-74145811D01*
X107064353Y-74162608D01*
X107064348Y-74162609D01*
X107056291Y-74163670D01*
X107048781Y-74166780D01*
X107048776Y-74166782D01*
X106929885Y-74216028D01*
X106929883Y-74216029D01*
X106922375Y-74219139D01*
X106915933Y-74224082D01*
X106915928Y-74224085D01*
X106813821Y-74302435D01*
X106813817Y-74302438D01*
X106807379Y-74307379D01*
X106802438Y-74313817D01*
X106802435Y-74313821D01*
X106724085Y-74415928D01*
X106724082Y-74415933D01*
X106719139Y-74422375D01*
X106716029Y-74429883D01*
X106716028Y-74429885D01*
X106666782Y-74548776D01*
X106666780Y-74548781D01*
X106663670Y-74556291D01*
X106662609Y-74564348D01*
X106662608Y-74564353D01*
X106658244Y-74597505D01*
X106644750Y-74700000D01*
X93700500Y-74700000D01*
X93700499Y-73602128D01*
X93694091Y-73542517D01*
X93678233Y-73500000D01*
X99344750Y-73500000D01*
X99345811Y-73508059D01*
X99358631Y-73605439D01*
X99363670Y-73643709D01*
X99366781Y-73651220D01*
X99366782Y-73651223D01*
X99380984Y-73685509D01*
X99419139Y-73777625D01*
X99507379Y-73892621D01*
X99622375Y-73980861D01*
X99756291Y-74036330D01*
X99900000Y-74055250D01*
X100043709Y-74036330D01*
X100177625Y-73980861D01*
X100292621Y-73892621D01*
X100380861Y-73777625D01*
X100436330Y-73643709D01*
X100455250Y-73500000D01*
X100436330Y-73356291D01*
X100380861Y-73222375D01*
X100292621Y-73107379D01*
X100223303Y-73054189D01*
X100184071Y-73024085D01*
X100184069Y-73024084D01*
X100177625Y-73019139D01*
X100092721Y-72983971D01*
X100051223Y-72966782D01*
X100051220Y-72966781D01*
X100043709Y-72963670D01*
X100035649Y-72962608D01*
X100035646Y-72962608D01*
X99908059Y-72945811D01*
X99900000Y-72944750D01*
X99891941Y-72945811D01*
X99764353Y-72962608D01*
X99764348Y-72962609D01*
X99756291Y-72963670D01*
X99748781Y-72966780D01*
X99748776Y-72966782D01*
X99629885Y-73016028D01*
X99629883Y-73016029D01*
X99622375Y-73019139D01*
X99615933Y-73024082D01*
X99615928Y-73024085D01*
X99513821Y-73102435D01*
X99513817Y-73102438D01*
X99507379Y-73107379D01*
X99502438Y-73113817D01*
X99502435Y-73113821D01*
X99424085Y-73215928D01*
X99424082Y-73215933D01*
X99419139Y-73222375D01*
X99416029Y-73229883D01*
X99416028Y-73229885D01*
X99366782Y-73348776D01*
X99366780Y-73348781D01*
X99363670Y-73356291D01*
X99362609Y-73364348D01*
X99362608Y-73364353D01*
X99345811Y-73491941D01*
X99344750Y-73500000D01*
X93678233Y-73500000D01*
X93643796Y-73407669D01*
X93557546Y-73292454D01*
X93442331Y-73206204D01*
X93307483Y-73155909D01*
X93299770Y-73155079D01*
X93299767Y-73155079D01*
X93251180Y-73149855D01*
X93251169Y-73149854D01*
X93247873Y-73149500D01*
X93244550Y-73149500D01*
X91655439Y-73149500D01*
X91655420Y-73149500D01*
X91652128Y-73149501D01*
X91648850Y-73149853D01*
X91648838Y-73149854D01*
X91600231Y-73155079D01*
X91600225Y-73155080D01*
X91592517Y-73155909D01*
X91585252Y-73158618D01*
X91585246Y-73158620D01*
X91465980Y-73203104D01*
X91465978Y-73203104D01*
X91457669Y-73206204D01*
X91450572Y-73211516D01*
X91450568Y-73211519D01*
X91349550Y-73287141D01*
X91349546Y-73287144D01*
X91342454Y-73292454D01*
X91337144Y-73299546D01*
X91337141Y-73299550D01*
X91261519Y-73400568D01*
X91261516Y-73400572D01*
X91256204Y-73407669D01*
X91253104Y-73415978D01*
X91253104Y-73415980D01*
X91208620Y-73535247D01*
X91208619Y-73535250D01*
X91205909Y-73542517D01*
X91205079Y-73550227D01*
X91205079Y-73550232D01*
X91199855Y-73598819D01*
X91199854Y-73598831D01*
X91199500Y-73602127D01*
X91199500Y-73605448D01*
X91199500Y-73605449D01*
X91199500Y-74894560D01*
X91199500Y-74894578D01*
X82513849Y-74894578D01*
X82514404Y-72500000D01*
X107944750Y-72500000D01*
X107945811Y-72508059D01*
X107962461Y-72634530D01*
X107963670Y-72643709D01*
X108019139Y-72777625D01*
X108024084Y-72784069D01*
X108024085Y-72784071D01*
X108073681Y-72848705D01*
X108107379Y-72892621D01*
X108222375Y-72980861D01*
X108356291Y-73036330D01*
X108500000Y-73055250D01*
X108643709Y-73036330D01*
X108777625Y-72980861D01*
X108892621Y-72892621D01*
X108980861Y-72777625D01*
X109036330Y-72643709D01*
X109055250Y-72500000D01*
X109036330Y-72356291D01*
X109013014Y-72300000D01*
X123944722Y-72300000D01*
X123945626Y-72307445D01*
X123962858Y-72449370D01*
X123962859Y-72449375D01*
X123963763Y-72456818D01*
X123966422Y-72463831D01*
X123966423Y-72463832D01*
X123979193Y-72497505D01*
X124019780Y-72604523D01*
X124024043Y-72610699D01*
X124052014Y-72651223D01*
X124109517Y-72734530D01*
X124227760Y-72839283D01*
X124367635Y-72912696D01*
X124491476Y-72943219D01*
X124501990Y-72945811D01*
X124521015Y-72950500D01*
X124671485Y-72950500D01*
X124678985Y-72950500D01*
X124832365Y-72912696D01*
X124972240Y-72839283D01*
X125090483Y-72734530D01*
X125180220Y-72604523D01*
X125236237Y-72456818D01*
X125255278Y-72300000D01*
X125243136Y-72200000D01*
X128144722Y-72200000D01*
X128145626Y-72207445D01*
X128162858Y-72349370D01*
X128162859Y-72349375D01*
X128163763Y-72356818D01*
X128219780Y-72504523D01*
X128224043Y-72510699D01*
X128293067Y-72610699D01*
X128309517Y-72634530D01*
X128427760Y-72739283D01*
X128567635Y-72812696D01*
X128721015Y-72850500D01*
X128871485Y-72850500D01*
X128878985Y-72850500D01*
X129032365Y-72812696D01*
X129172240Y-72739283D01*
X129290483Y-72634530D01*
X129380220Y-72504523D01*
X129436237Y-72356818D01*
X129455278Y-72200000D01*
X129436237Y-72043182D01*
X129380220Y-71895477D01*
X129290483Y-71765470D01*
X129172240Y-71660717D01*
X129165595Y-71657229D01*
X129165593Y-71657228D01*
X129039006Y-71590789D01*
X129039002Y-71590787D01*
X129032365Y-71587304D01*
X129025087Y-71585510D01*
X129025084Y-71585509D01*
X128886267Y-71551294D01*
X128886260Y-71551293D01*
X128878985Y-71549500D01*
X128721015Y-71549500D01*
X128713740Y-71551292D01*
X128713732Y-71551294D01*
X128574915Y-71585509D01*
X128574909Y-71585510D01*
X128567635Y-71587304D01*
X128561000Y-71590786D01*
X128560993Y-71590789D01*
X128434406Y-71657228D01*
X128434400Y-71657231D01*
X128427760Y-71660717D01*
X128422148Y-71665687D01*
X128422143Y-71665692D01*
X128315127Y-71760499D01*
X128315122Y-71760503D01*
X128309517Y-71765470D01*
X128305262Y-71771634D01*
X128305257Y-71771640D01*
X128224043Y-71889300D01*
X128224040Y-71889303D01*
X128219780Y-71895477D01*
X128217120Y-71902488D01*
X128217118Y-71902494D01*
X128166423Y-72036167D01*
X128163763Y-72043182D01*
X128162859Y-72050622D01*
X128162858Y-72050629D01*
X128146070Y-72188896D01*
X128144722Y-72200000D01*
X125243136Y-72200000D01*
X125236237Y-72143182D01*
X125180220Y-71995477D01*
X125090483Y-71865470D01*
X125058788Y-71837391D01*
X124977856Y-71765692D01*
X124977854Y-71765690D01*
X124972240Y-71760717D01*
X124965595Y-71757229D01*
X124965593Y-71757228D01*
X124839006Y-71690789D01*
X124839002Y-71690787D01*
X124832365Y-71687304D01*
X124825087Y-71685510D01*
X124825084Y-71685509D01*
X124686267Y-71651294D01*
X124686260Y-71651293D01*
X124678985Y-71649500D01*
X124521015Y-71649500D01*
X124513740Y-71651292D01*
X124513732Y-71651294D01*
X124374915Y-71685509D01*
X124374909Y-71685510D01*
X124367635Y-71687304D01*
X124361000Y-71690786D01*
X124360993Y-71690789D01*
X124234406Y-71757228D01*
X124234400Y-71757231D01*
X124227760Y-71760717D01*
X124222148Y-71765687D01*
X124222143Y-71765692D01*
X124115127Y-71860499D01*
X124115122Y-71860503D01*
X124109517Y-71865470D01*
X124105262Y-71871634D01*
X124105257Y-71871640D01*
X124024043Y-71989300D01*
X124024040Y-71989303D01*
X124019780Y-71995477D01*
X124017120Y-72002488D01*
X124017118Y-72002494D01*
X123979216Y-72102435D01*
X123963763Y-72143182D01*
X123962859Y-72150622D01*
X123962858Y-72150629D01*
X123957768Y-72192555D01*
X123944722Y-72300000D01*
X109013014Y-72300000D01*
X108980861Y-72222375D01*
X108892621Y-72107379D01*
X108886178Y-72102435D01*
X108784071Y-72024085D01*
X108784069Y-72024084D01*
X108777625Y-72019139D01*
X108720499Y-71995477D01*
X108651223Y-71966782D01*
X108651220Y-71966781D01*
X108643709Y-71963670D01*
X108635649Y-71962608D01*
X108635646Y-71962608D01*
X108508059Y-71945811D01*
X108500000Y-71944750D01*
X108491941Y-71945811D01*
X108364353Y-71962608D01*
X108364348Y-71962609D01*
X108356291Y-71963670D01*
X108348781Y-71966780D01*
X108348776Y-71966782D01*
X108229885Y-72016028D01*
X108229883Y-72016029D01*
X108222375Y-72019139D01*
X108215933Y-72024082D01*
X108215928Y-72024085D01*
X108113821Y-72102435D01*
X108113817Y-72102438D01*
X108107379Y-72107379D01*
X108102438Y-72113817D01*
X108102435Y-72113821D01*
X108024085Y-72215928D01*
X108024082Y-72215933D01*
X108019139Y-72222375D01*
X108016029Y-72229883D01*
X108016028Y-72229885D01*
X107966782Y-72348776D01*
X107966780Y-72348781D01*
X107963670Y-72356291D01*
X107962609Y-72364348D01*
X107962608Y-72364353D01*
X107950435Y-72456818D01*
X107944750Y-72500000D01*
X82514404Y-72500000D01*
X82514682Y-71300000D01*
X106144750Y-71300000D01*
X106163670Y-71443709D01*
X106219139Y-71577625D01*
X106224084Y-71584069D01*
X106224085Y-71584071D01*
X106301922Y-71685509D01*
X106307379Y-71692621D01*
X106422375Y-71780861D01*
X106556291Y-71836330D01*
X106700000Y-71855250D01*
X106843709Y-71836330D01*
X106977625Y-71780861D01*
X107092621Y-71692621D01*
X107180861Y-71577625D01*
X107236330Y-71443709D01*
X107255250Y-71300000D01*
X107236330Y-71156291D01*
X107180861Y-71022375D01*
X107092621Y-70907379D01*
X106977625Y-70819139D01*
X106941592Y-70804214D01*
X106851223Y-70766782D01*
X106851220Y-70766781D01*
X106843709Y-70763670D01*
X106835649Y-70762608D01*
X106835646Y-70762608D01*
X106708059Y-70745811D01*
X106700000Y-70744750D01*
X106691941Y-70745811D01*
X106564353Y-70762608D01*
X106564348Y-70762609D01*
X106556291Y-70763670D01*
X106548781Y-70766780D01*
X106548776Y-70766782D01*
X106429885Y-70816028D01*
X106429883Y-70816029D01*
X106422375Y-70819139D01*
X106415933Y-70824082D01*
X106415928Y-70824085D01*
X106313821Y-70902435D01*
X106313817Y-70902438D01*
X106307379Y-70907379D01*
X106302438Y-70913817D01*
X106302435Y-70913821D01*
X106224085Y-71015928D01*
X106224082Y-71015933D01*
X106219139Y-71022375D01*
X106216029Y-71029883D01*
X106216028Y-71029885D01*
X106166782Y-71148776D01*
X106166780Y-71148781D01*
X106163670Y-71156291D01*
X106162609Y-71164348D01*
X106162608Y-71164353D01*
X106145811Y-71291941D01*
X106144750Y-71300000D01*
X82514682Y-71300000D01*
X82515030Y-69800000D01*
X106944722Y-69800000D01*
X106945626Y-69807445D01*
X106962858Y-69949370D01*
X106962859Y-69949375D01*
X106963763Y-69956818D01*
X107019780Y-70104523D01*
X107109517Y-70234530D01*
X107227760Y-70339283D01*
X107367635Y-70412696D01*
X107521015Y-70450500D01*
X107671485Y-70450500D01*
X107678985Y-70450500D01*
X107832365Y-70412696D01*
X107972240Y-70339283D01*
X108090483Y-70234530D01*
X108180220Y-70104523D01*
X108236237Y-69956818D01*
X108255278Y-69800000D01*
X108236237Y-69643182D01*
X108180220Y-69495477D01*
X108090483Y-69365470D01*
X107972240Y-69260717D01*
X107965595Y-69257229D01*
X107965593Y-69257228D01*
X107839006Y-69190789D01*
X107839002Y-69190787D01*
X107832365Y-69187304D01*
X107825087Y-69185510D01*
X107825084Y-69185509D01*
X107686267Y-69151294D01*
X107686260Y-69151293D01*
X107678985Y-69149500D01*
X107521015Y-69149500D01*
X107513740Y-69151292D01*
X107513732Y-69151294D01*
X107374915Y-69185509D01*
X107374909Y-69185510D01*
X107367635Y-69187304D01*
X107361000Y-69190786D01*
X107360993Y-69190789D01*
X107234406Y-69257228D01*
X107234400Y-69257231D01*
X107227760Y-69260717D01*
X107222148Y-69265687D01*
X107222143Y-69265692D01*
X107115127Y-69360499D01*
X107115122Y-69360503D01*
X107109517Y-69365470D01*
X107105262Y-69371634D01*
X107105257Y-69371640D01*
X107024043Y-69489300D01*
X107024040Y-69489303D01*
X107019780Y-69495477D01*
X107017120Y-69502488D01*
X107017118Y-69502494D01*
X106966423Y-69636167D01*
X106963763Y-69643182D01*
X106962859Y-69650622D01*
X106962858Y-69650629D01*
X106946070Y-69788896D01*
X106944722Y-69800000D01*
X82515030Y-69800000D01*
X82515517Y-67697398D01*
X91195746Y-67697398D01*
X91196026Y-67703282D01*
X91196026Y-67703289D01*
X91200757Y-67802602D01*
X91205746Y-67907330D01*
X91207135Y-67913058D01*
X91207137Y-67913067D01*
X91229389Y-68004788D01*
X91255296Y-68111576D01*
X91342604Y-68302753D01*
X91346031Y-68307566D01*
X91346032Y-68307567D01*
X91405626Y-68391256D01*
X91464514Y-68473952D01*
X91616622Y-68618986D01*
X91793428Y-68732613D01*
X91798911Y-68734808D01*
X91798913Y-68734809D01*
X91983060Y-68808530D01*
X91988543Y-68810725D01*
X92194915Y-68850500D01*
X92649471Y-68850500D01*
X92652425Y-68850500D01*
X92809218Y-68835528D01*
X93010875Y-68776316D01*
X93197682Y-68680011D01*
X93362886Y-68550092D01*
X93500519Y-68391256D01*
X93605604Y-68209244D01*
X93674344Y-68010633D01*
X93704254Y-67802602D01*
X93694254Y-67592670D01*
X93644704Y-67388424D01*
X93557396Y-67197247D01*
X93435486Y-67026048D01*
X93283378Y-66881014D01*
X93235120Y-66850000D01*
X95044750Y-66850000D01*
X95045811Y-66858059D01*
X95050352Y-66892555D01*
X95063670Y-66993709D01*
X95066781Y-67001220D01*
X95066782Y-67001223D01*
X95077065Y-67026048D01*
X95119139Y-67127625D01*
X95207379Y-67242621D01*
X95322375Y-67330861D01*
X95456291Y-67386330D01*
X95600000Y-67405250D01*
X95743709Y-67386330D01*
X95877625Y-67330861D01*
X95992621Y-67242621D01*
X96080861Y-67127625D01*
X96136330Y-66993709D01*
X96148667Y-66900000D01*
X111674722Y-66900000D01*
X111675626Y-66907445D01*
X111692858Y-67049370D01*
X111692859Y-67049375D01*
X111693763Y-67056818D01*
X111696422Y-67063831D01*
X111696423Y-67063832D01*
X111747020Y-67197247D01*
X111749780Y-67204523D01*
X111754043Y-67210699D01*
X111833569Y-67325914D01*
X111839517Y-67334530D01*
X111845126Y-67339499D01*
X111845127Y-67339500D01*
X111918146Y-67404189D01*
X111957760Y-67439283D01*
X112097635Y-67512696D01*
X112251015Y-67550500D01*
X112401485Y-67550500D01*
X112408985Y-67550500D01*
X112562365Y-67512696D01*
X112702240Y-67439283D01*
X112820483Y-67334530D01*
X112910220Y-67204523D01*
X112966237Y-67056818D01*
X112985278Y-66900000D01*
X112966237Y-66743182D01*
X112910220Y-66595477D01*
X112820483Y-66465470D01*
X112811350Y-66457379D01*
X112707856Y-66365692D01*
X112707854Y-66365690D01*
X112702240Y-66360717D01*
X112695595Y-66357229D01*
X112695593Y-66357228D01*
X112569006Y-66290789D01*
X112569002Y-66290787D01*
X112562365Y-66287304D01*
X112555087Y-66285510D01*
X112555084Y-66285509D01*
X112416267Y-66251294D01*
X112416260Y-66251293D01*
X112408985Y-66249500D01*
X112251015Y-66249500D01*
X112243740Y-66251292D01*
X112243732Y-66251294D01*
X112104915Y-66285509D01*
X112104909Y-66285510D01*
X112097635Y-66287304D01*
X112091000Y-66290786D01*
X112090993Y-66290789D01*
X111964406Y-66357228D01*
X111964400Y-66357231D01*
X111957760Y-66360717D01*
X111952148Y-66365687D01*
X111952143Y-66365692D01*
X111845127Y-66460499D01*
X111845122Y-66460503D01*
X111839517Y-66465470D01*
X111835262Y-66471634D01*
X111835257Y-66471640D01*
X111754043Y-66589300D01*
X111754040Y-66589303D01*
X111749780Y-66595477D01*
X111747120Y-66602488D01*
X111747118Y-66602494D01*
X111700132Y-66726387D01*
X111693763Y-66743182D01*
X111692859Y-66750622D01*
X111692858Y-66750629D01*
X111677415Y-66877821D01*
X111674722Y-66900000D01*
X96148667Y-66900000D01*
X96155250Y-66850000D01*
X96136330Y-66706291D01*
X96080861Y-66572375D01*
X95992621Y-66457379D01*
X95877625Y-66369139D01*
X95831766Y-66350144D01*
X95751223Y-66316782D01*
X95751220Y-66316781D01*
X95743709Y-66313670D01*
X95735649Y-66312608D01*
X95735646Y-66312608D01*
X95608059Y-66295811D01*
X95600000Y-66294750D01*
X95591941Y-66295811D01*
X95464353Y-66312608D01*
X95464348Y-66312609D01*
X95456291Y-66313670D01*
X95448781Y-66316780D01*
X95448776Y-66316782D01*
X95329885Y-66366028D01*
X95329883Y-66366029D01*
X95322375Y-66369139D01*
X95315933Y-66374082D01*
X95315928Y-66374085D01*
X95213821Y-66452435D01*
X95213817Y-66452438D01*
X95207379Y-66457379D01*
X95202438Y-66463817D01*
X95202435Y-66463821D01*
X95124085Y-66565928D01*
X95124082Y-66565933D01*
X95119139Y-66572375D01*
X95116029Y-66579883D01*
X95116028Y-66579885D01*
X95066782Y-66698776D01*
X95066780Y-66698781D01*
X95063670Y-66706291D01*
X95062609Y-66714348D01*
X95062608Y-66714353D01*
X95049057Y-66817282D01*
X95044750Y-66850000D01*
X93235120Y-66850000D01*
X93184210Y-66817282D01*
X93111544Y-66770582D01*
X93111541Y-66770580D01*
X93106572Y-66767387D01*
X93101092Y-66765193D01*
X93101086Y-66765190D01*
X92916939Y-66691469D01*
X92916932Y-66691467D01*
X92911457Y-66689275D01*
X92905662Y-66688158D01*
X92905655Y-66688156D01*
X92710882Y-66650617D01*
X92710879Y-66650616D01*
X92705085Y-66649500D01*
X92247575Y-66649500D01*
X92244646Y-66649779D01*
X92244639Y-66649780D01*
X92096662Y-66663910D01*
X92096656Y-66663911D01*
X92090782Y-66664472D01*
X92085112Y-66666136D01*
X92085111Y-66666137D01*
X91894787Y-66722021D01*
X91894782Y-66722022D01*
X91889125Y-66723684D01*
X91883884Y-66726385D01*
X91883881Y-66726387D01*
X91707568Y-66817282D01*
X91707564Y-66817284D01*
X91702318Y-66819989D01*
X91697676Y-66823638D01*
X91697672Y-66823642D01*
X91541759Y-66946254D01*
X91541752Y-66946260D01*
X91537114Y-66949908D01*
X91533250Y-66954367D01*
X91533245Y-66954372D01*
X91403347Y-67104282D01*
X91399481Y-67108744D01*
X91396530Y-67113854D01*
X91396528Y-67113858D01*
X91297352Y-67285635D01*
X91297349Y-67285640D01*
X91294396Y-67290756D01*
X91292465Y-67296335D01*
X91292461Y-67296344D01*
X91227587Y-67483785D01*
X91227584Y-67483794D01*
X91225656Y-67489367D01*
X91224816Y-67495203D01*
X91224815Y-67495211D01*
X91196585Y-67691558D01*
X91196584Y-67691564D01*
X91195746Y-67697398D01*
X82515517Y-67697398D01*
X82515935Y-65894578D01*
X91199500Y-65894578D01*
X91199501Y-65897872D01*
X91199853Y-65901150D01*
X91199854Y-65901161D01*
X91205079Y-65949768D01*
X91205080Y-65949773D01*
X91205909Y-65957483D01*
X91208619Y-65964749D01*
X91208620Y-65964753D01*
X91242217Y-66054831D01*
X91256204Y-66092331D01*
X91342454Y-66207546D01*
X91457669Y-66293796D01*
X91592517Y-66344091D01*
X91652127Y-66350500D01*
X93247872Y-66350499D01*
X93307483Y-66344091D01*
X93442331Y-66293796D01*
X93557546Y-66207546D01*
X93643796Y-66092331D01*
X93678233Y-66000000D01*
X119144722Y-66000000D01*
X119145626Y-66007445D01*
X119162858Y-66149370D01*
X119162859Y-66149375D01*
X119163763Y-66156818D01*
X119166422Y-66163831D01*
X119166423Y-66163832D01*
X119216073Y-66294750D01*
X119219780Y-66304523D01*
X119224043Y-66310699D01*
X119262233Y-66366028D01*
X119309517Y-66434530D01*
X119427760Y-66539283D01*
X119567635Y-66612696D01*
X119721015Y-66650500D01*
X119871485Y-66650500D01*
X119878985Y-66650500D01*
X120032365Y-66612696D01*
X120172240Y-66539283D01*
X120290483Y-66434530D01*
X120380220Y-66304523D01*
X120436237Y-66156818D01*
X120455278Y-66000000D01*
X120436237Y-65843182D01*
X120380220Y-65695477D01*
X120290483Y-65565470D01*
X120284872Y-65560499D01*
X120177856Y-65465692D01*
X120177854Y-65465690D01*
X120172240Y-65460717D01*
X120165595Y-65457229D01*
X120165593Y-65457228D01*
X120039006Y-65390789D01*
X120039002Y-65390787D01*
X120032365Y-65387304D01*
X120025087Y-65385510D01*
X120025084Y-65385509D01*
X119886267Y-65351294D01*
X119886260Y-65351293D01*
X119878985Y-65349500D01*
X119721015Y-65349500D01*
X119713740Y-65351292D01*
X119713732Y-65351294D01*
X119574915Y-65385509D01*
X119574909Y-65385510D01*
X119567635Y-65387304D01*
X119561000Y-65390786D01*
X119560993Y-65390789D01*
X119434406Y-65457228D01*
X119434400Y-65457231D01*
X119427760Y-65460717D01*
X119422148Y-65465687D01*
X119422143Y-65465692D01*
X119315127Y-65560499D01*
X119315122Y-65560503D01*
X119309517Y-65565470D01*
X119305262Y-65571634D01*
X119305257Y-65571640D01*
X119224043Y-65689300D01*
X119224040Y-65689303D01*
X119219780Y-65695477D01*
X119217120Y-65702488D01*
X119217118Y-65702494D01*
X119167542Y-65833217D01*
X119163763Y-65843182D01*
X119162859Y-65850622D01*
X119162858Y-65850629D01*
X119150821Y-65949767D01*
X119144722Y-66000000D01*
X93678233Y-66000000D01*
X93694091Y-65957483D01*
X93700500Y-65897873D01*
X93700499Y-65100000D01*
X100044750Y-65100000D01*
X100045811Y-65108059D01*
X100051171Y-65148776D01*
X100063670Y-65243709D01*
X100119139Y-65377625D01*
X100124084Y-65384069D01*
X100124085Y-65384071D01*
X100202435Y-65486178D01*
X100207379Y-65492621D01*
X100322375Y-65580861D01*
X100456291Y-65636330D01*
X100600000Y-65655250D01*
X100743709Y-65636330D01*
X100877625Y-65580861D01*
X100992621Y-65492621D01*
X101080861Y-65377625D01*
X101113014Y-65300000D01*
X105494750Y-65300000D01*
X105495811Y-65308059D01*
X105508076Y-65401223D01*
X105513670Y-65443709D01*
X105516781Y-65451220D01*
X105516782Y-65451223D01*
X105548429Y-65527625D01*
X105569139Y-65577625D01*
X105574084Y-65584069D01*
X105574085Y-65584071D01*
X105614185Y-65636330D01*
X105657379Y-65692621D01*
X105772375Y-65780861D01*
X105906291Y-65836330D01*
X106050000Y-65855250D01*
X106193709Y-65836330D01*
X106327625Y-65780861D01*
X106442621Y-65692621D01*
X106530861Y-65577625D01*
X106586330Y-65443709D01*
X106605250Y-65300000D01*
X106598667Y-65250000D01*
X121394750Y-65250000D01*
X121395811Y-65258059D01*
X121410563Y-65370114D01*
X121413670Y-65393709D01*
X121416781Y-65401220D01*
X121416782Y-65401223D01*
X121434380Y-65443709D01*
X121469139Y-65527625D01*
X121474084Y-65534069D01*
X121474085Y-65534071D01*
X121512375Y-65583971D01*
X121557379Y-65642621D01*
X121672375Y-65730861D01*
X121806291Y-65786330D01*
X121950000Y-65805250D01*
X122093709Y-65786330D01*
X122227625Y-65730861D01*
X122342621Y-65642621D01*
X122430861Y-65527625D01*
X122486330Y-65393709D01*
X122505250Y-65250000D01*
X122486330Y-65106291D01*
X122430861Y-64972375D01*
X122342621Y-64857379D01*
X122227625Y-64769139D01*
X122191592Y-64754214D01*
X122101223Y-64716782D01*
X122101220Y-64716781D01*
X122093709Y-64713670D01*
X122085649Y-64712608D01*
X122085646Y-64712608D01*
X121958059Y-64695811D01*
X121950000Y-64694750D01*
X121941941Y-64695811D01*
X121814353Y-64712608D01*
X121814348Y-64712609D01*
X121806291Y-64713670D01*
X121798781Y-64716780D01*
X121798776Y-64716782D01*
X121679885Y-64766028D01*
X121679883Y-64766029D01*
X121672375Y-64769139D01*
X121665933Y-64774082D01*
X121665928Y-64774085D01*
X121563821Y-64852435D01*
X121563817Y-64852438D01*
X121557379Y-64857379D01*
X121552438Y-64863817D01*
X121552435Y-64863821D01*
X121474085Y-64965928D01*
X121474082Y-64965933D01*
X121469139Y-64972375D01*
X121466029Y-64979883D01*
X121466028Y-64979885D01*
X121416782Y-65098776D01*
X121416780Y-65098781D01*
X121413670Y-65106291D01*
X121412609Y-65114348D01*
X121412608Y-65114353D01*
X121396640Y-65235646D01*
X121394750Y-65250000D01*
X106598667Y-65250000D01*
X106586330Y-65156291D01*
X106530861Y-65022375D01*
X106442621Y-64907379D01*
X106436178Y-64902435D01*
X106334071Y-64824085D01*
X106334069Y-64824084D01*
X106327625Y-64819139D01*
X106291592Y-64804214D01*
X106201223Y-64766782D01*
X106201220Y-64766781D01*
X106193709Y-64763670D01*
X106185649Y-64762608D01*
X106185646Y-64762608D01*
X106058059Y-64745811D01*
X106050000Y-64744750D01*
X106041941Y-64745811D01*
X105914353Y-64762608D01*
X105914348Y-64762609D01*
X105906291Y-64763670D01*
X105898781Y-64766780D01*
X105898776Y-64766782D01*
X105779885Y-64816028D01*
X105779883Y-64816029D01*
X105772375Y-64819139D01*
X105765933Y-64824082D01*
X105765928Y-64824085D01*
X105663821Y-64902435D01*
X105663817Y-64902438D01*
X105657379Y-64907379D01*
X105652438Y-64913817D01*
X105652435Y-64913821D01*
X105574085Y-65015928D01*
X105574082Y-65015933D01*
X105569139Y-65022375D01*
X105566029Y-65029883D01*
X105566028Y-65029885D01*
X105516782Y-65148776D01*
X105516780Y-65148781D01*
X105513670Y-65156291D01*
X105512609Y-65164348D01*
X105512608Y-65164353D01*
X105502394Y-65241941D01*
X105494750Y-65300000D01*
X101113014Y-65300000D01*
X101136330Y-65243709D01*
X101155250Y-65100000D01*
X101136330Y-64956291D01*
X101080861Y-64822375D01*
X100992621Y-64707379D01*
X100877625Y-64619139D01*
X100828613Y-64598838D01*
X100751223Y-64566782D01*
X100751220Y-64566781D01*
X100743709Y-64563670D01*
X100735649Y-64562608D01*
X100735646Y-64562608D01*
X100608059Y-64545811D01*
X100600000Y-64544750D01*
X100591941Y-64545811D01*
X100464353Y-64562608D01*
X100464348Y-64562609D01*
X100456291Y-64563670D01*
X100448781Y-64566780D01*
X100448776Y-64566782D01*
X100329885Y-64616028D01*
X100329883Y-64616029D01*
X100322375Y-64619139D01*
X100315933Y-64624082D01*
X100315928Y-64624085D01*
X100213821Y-64702435D01*
X100213817Y-64702438D01*
X100207379Y-64707379D01*
X100202438Y-64713817D01*
X100202435Y-64713821D01*
X100124085Y-64815928D01*
X100124082Y-64815933D01*
X100119139Y-64822375D01*
X100116029Y-64829883D01*
X100116028Y-64829885D01*
X100066782Y-64948776D01*
X100066780Y-64948781D01*
X100063670Y-64956291D01*
X100062609Y-64964348D01*
X100062608Y-64964353D01*
X100053981Y-65029885D01*
X100044750Y-65100000D01*
X93700499Y-65100000D01*
X93700499Y-64602128D01*
X93694091Y-64542517D01*
X93643796Y-64407669D01*
X93557546Y-64292454D01*
X93442331Y-64206204D01*
X93307483Y-64155909D01*
X93299770Y-64155079D01*
X93299767Y-64155079D01*
X93251180Y-64149855D01*
X93251169Y-64149854D01*
X93247873Y-64149500D01*
X93244550Y-64149500D01*
X91655439Y-64149500D01*
X91655420Y-64149500D01*
X91652128Y-64149501D01*
X91648850Y-64149853D01*
X91648838Y-64149854D01*
X91600231Y-64155079D01*
X91600225Y-64155080D01*
X91592517Y-64155909D01*
X91585252Y-64158618D01*
X91585246Y-64158620D01*
X91465980Y-64203104D01*
X91465978Y-64203104D01*
X91457669Y-64206204D01*
X91450572Y-64211516D01*
X91450568Y-64211519D01*
X91349550Y-64287141D01*
X91349546Y-64287144D01*
X91342454Y-64292454D01*
X91337144Y-64299546D01*
X91337141Y-64299550D01*
X91261519Y-64400568D01*
X91261516Y-64400572D01*
X91256204Y-64407669D01*
X91253104Y-64415978D01*
X91253104Y-64415980D01*
X91208620Y-64535247D01*
X91208619Y-64535250D01*
X91205909Y-64542517D01*
X91205079Y-64550227D01*
X91205079Y-64550232D01*
X91199855Y-64598819D01*
X91199854Y-64598831D01*
X91199500Y-64602127D01*
X91199500Y-64605448D01*
X91199500Y-64605449D01*
X91199500Y-65894560D01*
X91199500Y-65894578D01*
X82515935Y-65894578D01*
X82516513Y-63400000D01*
X99544722Y-63400000D01*
X99545626Y-63407445D01*
X99562858Y-63549370D01*
X99562859Y-63549375D01*
X99563763Y-63556818D01*
X99619780Y-63704523D01*
X99624043Y-63710699D01*
X99650735Y-63749370D01*
X99709517Y-63834530D01*
X99715126Y-63839499D01*
X99715127Y-63839500D01*
X99788523Y-63904523D01*
X99827760Y-63939283D01*
X99967635Y-64012696D01*
X100121015Y-64050500D01*
X100271485Y-64050500D01*
X100278985Y-64050500D01*
X100432365Y-64012696D01*
X100572240Y-63939283D01*
X100690483Y-63834530D01*
X100780220Y-63704523D01*
X100819860Y-63600000D01*
X116544722Y-63600000D01*
X116545626Y-63607445D01*
X116562858Y-63749370D01*
X116562859Y-63749375D01*
X116563763Y-63756818D01*
X116619780Y-63904523D01*
X116624043Y-63910699D01*
X116646180Y-63942771D01*
X116709517Y-64034530D01*
X116827760Y-64139283D01*
X116967635Y-64212696D01*
X117121015Y-64250500D01*
X117271485Y-64250500D01*
X117278985Y-64250500D01*
X117432365Y-64212696D01*
X117572240Y-64139283D01*
X117690483Y-64034530D01*
X117780220Y-63904523D01*
X117836237Y-63756818D01*
X117855278Y-63600000D01*
X117836237Y-63443182D01*
X117780220Y-63295477D01*
X117690483Y-63165470D01*
X117619397Y-63102494D01*
X117577856Y-63065692D01*
X117577854Y-63065690D01*
X117572240Y-63060717D01*
X117565595Y-63057229D01*
X117565593Y-63057228D01*
X117439006Y-62990789D01*
X117439002Y-62990787D01*
X117432365Y-62987304D01*
X117425087Y-62985510D01*
X117425084Y-62985509D01*
X117286267Y-62951294D01*
X117286260Y-62951293D01*
X117278985Y-62949500D01*
X117121015Y-62949500D01*
X117113740Y-62951292D01*
X117113732Y-62951294D01*
X116974915Y-62985509D01*
X116974909Y-62985510D01*
X116967635Y-62987304D01*
X116961000Y-62990786D01*
X116960993Y-62990789D01*
X116834406Y-63057228D01*
X116834400Y-63057231D01*
X116827760Y-63060717D01*
X116822148Y-63065687D01*
X116822143Y-63065692D01*
X116715127Y-63160499D01*
X116715122Y-63160503D01*
X116709517Y-63165470D01*
X116705262Y-63171634D01*
X116705257Y-63171640D01*
X116624043Y-63289300D01*
X116624040Y-63289303D01*
X116619780Y-63295477D01*
X116617120Y-63302488D01*
X116617118Y-63302494D01*
X116577316Y-63407445D01*
X116563763Y-63443182D01*
X116562859Y-63450622D01*
X116562858Y-63450629D01*
X116546070Y-63588896D01*
X116544722Y-63600000D01*
X100819860Y-63600000D01*
X100836237Y-63556818D01*
X100855278Y-63400000D01*
X100836237Y-63243182D01*
X100780220Y-63095477D01*
X100690483Y-62965470D01*
X100684872Y-62960499D01*
X100577856Y-62865692D01*
X100577854Y-62865690D01*
X100572240Y-62860717D01*
X100565595Y-62857229D01*
X100565593Y-62857228D01*
X100439006Y-62790789D01*
X100439002Y-62790787D01*
X100432365Y-62787304D01*
X100425087Y-62785510D01*
X100425084Y-62785509D01*
X100286267Y-62751294D01*
X100286260Y-62751293D01*
X100278985Y-62749500D01*
X100121015Y-62749500D01*
X100113740Y-62751292D01*
X100113732Y-62751294D01*
X99974915Y-62785509D01*
X99974909Y-62785510D01*
X99967635Y-62787304D01*
X99961000Y-62790786D01*
X99960993Y-62790789D01*
X99834406Y-62857228D01*
X99834400Y-62857231D01*
X99827760Y-62860717D01*
X99822148Y-62865687D01*
X99822143Y-62865692D01*
X99715127Y-62960499D01*
X99715122Y-62960503D01*
X99709517Y-62965470D01*
X99705262Y-62971634D01*
X99705257Y-62971640D01*
X99624043Y-63089300D01*
X99624040Y-63089303D01*
X99619780Y-63095477D01*
X99617120Y-63102488D01*
X99617118Y-63102494D01*
X99595120Y-63160499D01*
X99563763Y-63243182D01*
X99562859Y-63250622D01*
X99562858Y-63250629D01*
X99558163Y-63289300D01*
X99544722Y-63400000D01*
X82516513Y-63400000D01*
X82516930Y-61600000D01*
X115144722Y-61600000D01*
X115145626Y-61607445D01*
X115162858Y-61749370D01*
X115162859Y-61749375D01*
X115163763Y-61756818D01*
X115219780Y-61904523D01*
X115309517Y-62034530D01*
X115427760Y-62139283D01*
X115567635Y-62212696D01*
X115721015Y-62250500D01*
X115871485Y-62250500D01*
X115878985Y-62250500D01*
X116032365Y-62212696D01*
X116172240Y-62139283D01*
X116290483Y-62034530D01*
X116380220Y-61904523D01*
X116436237Y-61756818D01*
X116455278Y-61600000D01*
X116436237Y-61443182D01*
X116380220Y-61295477D01*
X116290483Y-61165470D01*
X116172240Y-61060717D01*
X116165595Y-61057229D01*
X116165593Y-61057228D01*
X116039006Y-60990789D01*
X116039002Y-60990787D01*
X116032365Y-60987304D01*
X116025087Y-60985510D01*
X116025084Y-60985509D01*
X115886267Y-60951294D01*
X115886260Y-60951293D01*
X115878985Y-60949500D01*
X115721015Y-60949500D01*
X115713740Y-60951292D01*
X115713732Y-60951294D01*
X115574915Y-60985509D01*
X115574909Y-60985510D01*
X115567635Y-60987304D01*
X115561000Y-60990786D01*
X115560993Y-60990789D01*
X115434406Y-61057228D01*
X115434400Y-61057231D01*
X115427760Y-61060717D01*
X115422148Y-61065687D01*
X115422143Y-61065692D01*
X115315127Y-61160499D01*
X115315122Y-61160503D01*
X115309517Y-61165470D01*
X115305262Y-61171634D01*
X115305257Y-61171640D01*
X115224043Y-61289300D01*
X115224040Y-61289303D01*
X115219780Y-61295477D01*
X115217120Y-61302488D01*
X115217118Y-61302494D01*
X115166423Y-61436167D01*
X115163763Y-61443182D01*
X115162859Y-61450622D01*
X115162858Y-61450629D01*
X115146070Y-61588896D01*
X115144722Y-61600000D01*
X82516930Y-61600000D01*
X82517660Y-58452425D01*
X92649500Y-58452425D01*
X92649779Y-58455354D01*
X92649780Y-58455360D01*
X92653964Y-58499182D01*
X92664472Y-58609218D01*
X92723684Y-58810875D01*
X92819989Y-58997682D01*
X92823642Y-59002327D01*
X92912054Y-59114752D01*
X92949908Y-59162886D01*
X93108744Y-59300519D01*
X93290756Y-59405604D01*
X93489367Y-59474344D01*
X93697398Y-59504254D01*
X93907330Y-59494254D01*
X94111576Y-59444704D01*
X94302753Y-59357396D01*
X94473952Y-59235486D01*
X94618986Y-59083378D01*
X94643921Y-59044578D01*
X95149500Y-59044578D01*
X95149501Y-59047872D01*
X95149853Y-59051150D01*
X95149854Y-59051161D01*
X95155079Y-59099768D01*
X95155080Y-59099773D01*
X95155909Y-59107483D01*
X95158619Y-59114749D01*
X95158620Y-59114753D01*
X95192217Y-59204831D01*
X95206204Y-59242331D01*
X95211518Y-59249430D01*
X95211519Y-59249431D01*
X95249763Y-59300519D01*
X95292454Y-59357546D01*
X95407669Y-59443796D01*
X95542517Y-59494091D01*
X95602127Y-59500500D01*
X96897872Y-59500499D01*
X96957483Y-59494091D01*
X97092331Y-59443796D01*
X97207546Y-59357546D01*
X97293796Y-59242331D01*
X97344091Y-59107483D01*
X97350500Y-59047873D01*
X97350500Y-58452425D01*
X101649500Y-58452425D01*
X101649779Y-58455354D01*
X101649780Y-58455360D01*
X101653964Y-58499182D01*
X101664472Y-58609218D01*
X101723684Y-58810875D01*
X101819989Y-58997682D01*
X101823642Y-59002327D01*
X101912054Y-59114752D01*
X101949908Y-59162886D01*
X102108744Y-59300519D01*
X102290756Y-59405604D01*
X102489367Y-59474344D01*
X102697398Y-59504254D01*
X102907330Y-59494254D01*
X103111576Y-59444704D01*
X103302753Y-59357396D01*
X103473952Y-59235486D01*
X103618986Y-59083378D01*
X103643921Y-59044578D01*
X104149500Y-59044578D01*
X104149501Y-59047872D01*
X104149853Y-59051150D01*
X104149854Y-59051161D01*
X104155079Y-59099768D01*
X104155080Y-59099773D01*
X104155909Y-59107483D01*
X104158619Y-59114749D01*
X104158620Y-59114753D01*
X104192217Y-59204831D01*
X104206204Y-59242331D01*
X104211518Y-59249430D01*
X104211519Y-59249431D01*
X104249763Y-59300519D01*
X104292454Y-59357546D01*
X104407669Y-59443796D01*
X104542517Y-59494091D01*
X104602127Y-59500500D01*
X105897872Y-59500499D01*
X105957483Y-59494091D01*
X106092331Y-59443796D01*
X106207546Y-59357546D01*
X106293796Y-59242331D01*
X106344091Y-59107483D01*
X106350500Y-59047873D01*
X106350500Y-58452425D01*
X110649500Y-58452425D01*
X110649779Y-58455354D01*
X110649780Y-58455360D01*
X110653964Y-58499182D01*
X110664472Y-58609218D01*
X110723684Y-58810875D01*
X110819989Y-58997682D01*
X110823642Y-59002327D01*
X110912054Y-59114752D01*
X110949908Y-59162886D01*
X111108744Y-59300519D01*
X111290756Y-59405604D01*
X111489367Y-59474344D01*
X111697398Y-59504254D01*
X111907330Y-59494254D01*
X112111576Y-59444704D01*
X112302753Y-59357396D01*
X112473952Y-59235486D01*
X112618986Y-59083378D01*
X112643921Y-59044578D01*
X113149500Y-59044578D01*
X113149501Y-59047872D01*
X113149853Y-59051150D01*
X113149854Y-59051161D01*
X113155079Y-59099768D01*
X113155080Y-59099773D01*
X113155909Y-59107483D01*
X113158619Y-59114749D01*
X113158620Y-59114753D01*
X113192217Y-59204831D01*
X113206204Y-59242331D01*
X113211518Y-59249430D01*
X113211519Y-59249431D01*
X113249763Y-59300519D01*
X113292454Y-59357546D01*
X113407669Y-59443796D01*
X113542517Y-59494091D01*
X113602127Y-59500500D01*
X114897872Y-59500499D01*
X114902514Y-59500000D01*
X129744750Y-59500000D01*
X129763670Y-59643709D01*
X129819139Y-59777625D01*
X129907379Y-59892621D01*
X130022375Y-59980861D01*
X130156291Y-60036330D01*
X130300000Y-60055250D01*
X130443709Y-60036330D01*
X130577625Y-59980861D01*
X130692621Y-59892621D01*
X130780861Y-59777625D01*
X130836330Y-59643709D01*
X130855250Y-59500000D01*
X130836330Y-59356291D01*
X130780861Y-59222375D01*
X130692621Y-59107379D01*
X130666911Y-59087651D01*
X130584071Y-59024085D01*
X130584069Y-59024084D01*
X130577625Y-59019139D01*
X130537037Y-59002327D01*
X130451223Y-58966782D01*
X130451220Y-58966781D01*
X130443709Y-58963670D01*
X130435649Y-58962608D01*
X130435646Y-58962608D01*
X130308059Y-58945811D01*
X130300000Y-58944750D01*
X130291941Y-58945811D01*
X130164353Y-58962608D01*
X130164348Y-58962609D01*
X130156291Y-58963670D01*
X130148781Y-58966780D01*
X130148776Y-58966782D01*
X130029885Y-59016028D01*
X130029883Y-59016029D01*
X130022375Y-59019139D01*
X130015933Y-59024082D01*
X130015928Y-59024085D01*
X129913821Y-59102435D01*
X129913817Y-59102438D01*
X129907379Y-59107379D01*
X129902438Y-59113817D01*
X129902435Y-59113821D01*
X129824085Y-59215928D01*
X129824082Y-59215933D01*
X129819139Y-59222375D01*
X129816029Y-59229883D01*
X129816028Y-59229885D01*
X129766782Y-59348776D01*
X129766780Y-59348781D01*
X129763670Y-59356291D01*
X129762609Y-59364348D01*
X129762608Y-59364353D01*
X129748382Y-59472412D01*
X129744750Y-59500000D01*
X114902514Y-59500000D01*
X114957483Y-59494091D01*
X115092331Y-59443796D01*
X115207546Y-59357546D01*
X115293796Y-59242331D01*
X115344091Y-59107483D01*
X115350500Y-59047873D01*
X115350499Y-57452128D01*
X115344091Y-57392517D01*
X115293796Y-57257669D01*
X115207546Y-57142454D01*
X115092331Y-57056204D01*
X115015605Y-57027587D01*
X114964752Y-57008620D01*
X114964750Y-57008619D01*
X114957483Y-57005909D01*
X114949770Y-57005079D01*
X114949767Y-57005079D01*
X114901180Y-56999855D01*
X114901169Y-56999854D01*
X114897873Y-56999500D01*
X114894550Y-56999500D01*
X113605439Y-56999500D01*
X113605420Y-56999500D01*
X113602128Y-56999501D01*
X113598850Y-56999853D01*
X113598838Y-56999854D01*
X113550231Y-57005079D01*
X113550225Y-57005080D01*
X113542517Y-57005909D01*
X113535252Y-57008618D01*
X113535246Y-57008620D01*
X113415980Y-57053104D01*
X113415978Y-57053104D01*
X113407669Y-57056204D01*
X113400572Y-57061516D01*
X113400568Y-57061519D01*
X113299550Y-57137141D01*
X113299546Y-57137144D01*
X113292454Y-57142454D01*
X113287144Y-57149546D01*
X113287141Y-57149550D01*
X113211519Y-57250568D01*
X113211516Y-57250572D01*
X113206204Y-57257669D01*
X113203104Y-57265978D01*
X113203104Y-57265980D01*
X113158620Y-57385247D01*
X113158619Y-57385250D01*
X113155909Y-57392517D01*
X113155079Y-57400227D01*
X113155079Y-57400232D01*
X113149855Y-57448819D01*
X113149854Y-57448831D01*
X113149500Y-57452127D01*
X113149500Y-57455448D01*
X113149500Y-57455449D01*
X113149500Y-59044560D01*
X113149500Y-59044578D01*
X112643921Y-59044578D01*
X112732613Y-58906572D01*
X112810725Y-58711457D01*
X112850500Y-58505085D01*
X112850500Y-58047575D01*
X112835528Y-57890782D01*
X112776316Y-57689125D01*
X112680011Y-57502318D01*
X112550092Y-57337114D01*
X112391256Y-57199481D01*
X112209244Y-57094396D01*
X112203660Y-57092463D01*
X112203655Y-57092461D01*
X112016214Y-57027587D01*
X112016208Y-57027585D01*
X112010633Y-57025656D01*
X112004794Y-57024816D01*
X112004788Y-57024815D01*
X111808441Y-56996585D01*
X111808435Y-56996584D01*
X111802602Y-56995746D01*
X111796716Y-56996026D01*
X111796710Y-56996026D01*
X111598567Y-57005465D01*
X111598565Y-57005465D01*
X111592670Y-57005746D01*
X111586942Y-57007135D01*
X111586932Y-57007137D01*
X111394160Y-57053904D01*
X111394155Y-57053905D01*
X111388424Y-57055296D01*
X111383054Y-57057747D01*
X111383052Y-57057749D01*
X111202621Y-57140149D01*
X111202614Y-57140152D01*
X111197247Y-57142604D01*
X111192437Y-57146028D01*
X111192432Y-57146032D01*
X111030865Y-57261083D01*
X111030859Y-57261087D01*
X111026048Y-57264514D01*
X111021974Y-57268786D01*
X111021969Y-57268791D01*
X110885088Y-57412348D01*
X110885082Y-57412355D01*
X110881014Y-57416622D01*
X110877822Y-57421588D01*
X110877821Y-57421590D01*
X110770582Y-57588455D01*
X110770578Y-57588462D01*
X110767387Y-57593428D01*
X110765195Y-57598903D01*
X110765190Y-57598913D01*
X110691469Y-57783060D01*
X110691466Y-57783069D01*
X110689275Y-57788543D01*
X110688158Y-57794334D01*
X110688156Y-57794344D01*
X110650617Y-57989117D01*
X110649500Y-57994915D01*
X110649500Y-58452425D01*
X106350500Y-58452425D01*
X106350499Y-57452128D01*
X106344091Y-57392517D01*
X106293796Y-57257669D01*
X106207546Y-57142454D01*
X106092331Y-57056204D01*
X106015605Y-57027587D01*
X105964752Y-57008620D01*
X105964750Y-57008619D01*
X105957483Y-57005909D01*
X105949770Y-57005079D01*
X105949767Y-57005079D01*
X105901180Y-56999855D01*
X105901169Y-56999854D01*
X105897873Y-56999500D01*
X105894550Y-56999500D01*
X104605439Y-56999500D01*
X104605420Y-56999500D01*
X104602128Y-56999501D01*
X104598850Y-56999853D01*
X104598838Y-56999854D01*
X104550231Y-57005079D01*
X104550225Y-57005080D01*
X104542517Y-57005909D01*
X104535252Y-57008618D01*
X104535246Y-57008620D01*
X104415980Y-57053104D01*
X104415978Y-57053104D01*
X104407669Y-57056204D01*
X104400572Y-57061516D01*
X104400568Y-57061519D01*
X104299550Y-57137141D01*
X104299546Y-57137144D01*
X104292454Y-57142454D01*
X104287144Y-57149546D01*
X104287141Y-57149550D01*
X104211519Y-57250568D01*
X104211516Y-57250572D01*
X104206204Y-57257669D01*
X104203104Y-57265978D01*
X104203104Y-57265980D01*
X104158620Y-57385247D01*
X104158619Y-57385250D01*
X104155909Y-57392517D01*
X104155079Y-57400227D01*
X104155079Y-57400232D01*
X104149855Y-57448819D01*
X104149854Y-57448831D01*
X104149500Y-57452127D01*
X104149500Y-57455448D01*
X104149500Y-57455449D01*
X104149500Y-59044560D01*
X104149500Y-59044578D01*
X103643921Y-59044578D01*
X103732613Y-58906572D01*
X103810725Y-58711457D01*
X103850500Y-58505085D01*
X103850500Y-58047575D01*
X103835528Y-57890782D01*
X103776316Y-57689125D01*
X103680011Y-57502318D01*
X103550092Y-57337114D01*
X103391256Y-57199481D01*
X103209244Y-57094396D01*
X103203660Y-57092463D01*
X103203655Y-57092461D01*
X103016214Y-57027587D01*
X103016208Y-57027585D01*
X103010633Y-57025656D01*
X103004794Y-57024816D01*
X103004788Y-57024815D01*
X102808441Y-56996585D01*
X102808435Y-56996584D01*
X102802602Y-56995746D01*
X102796716Y-56996026D01*
X102796710Y-56996026D01*
X102598567Y-57005465D01*
X102598565Y-57005465D01*
X102592670Y-57005746D01*
X102586942Y-57007135D01*
X102586932Y-57007137D01*
X102394160Y-57053904D01*
X102394155Y-57053905D01*
X102388424Y-57055296D01*
X102383054Y-57057747D01*
X102383052Y-57057749D01*
X102202621Y-57140149D01*
X102202614Y-57140152D01*
X102197247Y-57142604D01*
X102192437Y-57146028D01*
X102192432Y-57146032D01*
X102030865Y-57261083D01*
X102030859Y-57261087D01*
X102026048Y-57264514D01*
X102021974Y-57268786D01*
X102021969Y-57268791D01*
X101885088Y-57412348D01*
X101885082Y-57412355D01*
X101881014Y-57416622D01*
X101877822Y-57421588D01*
X101877821Y-57421590D01*
X101770582Y-57588455D01*
X101770578Y-57588462D01*
X101767387Y-57593428D01*
X101765195Y-57598903D01*
X101765190Y-57598913D01*
X101691469Y-57783060D01*
X101691466Y-57783069D01*
X101689275Y-57788543D01*
X101688158Y-57794334D01*
X101688156Y-57794344D01*
X101650617Y-57989117D01*
X101649500Y-57994915D01*
X101649500Y-58452425D01*
X97350500Y-58452425D01*
X97350499Y-57452128D01*
X97344091Y-57392517D01*
X97293796Y-57257669D01*
X97207546Y-57142454D01*
X97092331Y-57056204D01*
X97015605Y-57027587D01*
X96964752Y-57008620D01*
X96964750Y-57008619D01*
X96957483Y-57005909D01*
X96949770Y-57005079D01*
X96949767Y-57005079D01*
X96901180Y-56999855D01*
X96901169Y-56999854D01*
X96897873Y-56999500D01*
X96894550Y-56999500D01*
X95605439Y-56999500D01*
X95605420Y-56999500D01*
X95602128Y-56999501D01*
X95598850Y-56999853D01*
X95598838Y-56999854D01*
X95550231Y-57005079D01*
X95550225Y-57005080D01*
X95542517Y-57005909D01*
X95535252Y-57008618D01*
X95535246Y-57008620D01*
X95415980Y-57053104D01*
X95415978Y-57053104D01*
X95407669Y-57056204D01*
X95400572Y-57061516D01*
X95400568Y-57061519D01*
X95299550Y-57137141D01*
X95299546Y-57137144D01*
X95292454Y-57142454D01*
X95287144Y-57149546D01*
X95287141Y-57149550D01*
X95211519Y-57250568D01*
X95211516Y-57250572D01*
X95206204Y-57257669D01*
X95203104Y-57265978D01*
X95203104Y-57265980D01*
X95158620Y-57385247D01*
X95158619Y-57385250D01*
X95155909Y-57392517D01*
X95155079Y-57400227D01*
X95155079Y-57400232D01*
X95149855Y-57448819D01*
X95149854Y-57448831D01*
X95149500Y-57452127D01*
X95149500Y-57455448D01*
X95149500Y-57455449D01*
X95149500Y-59044560D01*
X95149500Y-59044578D01*
X94643921Y-59044578D01*
X94732613Y-58906572D01*
X94810725Y-58711457D01*
X94850500Y-58505085D01*
X94850500Y-58047575D01*
X94835528Y-57890782D01*
X94776316Y-57689125D01*
X94680011Y-57502318D01*
X94550092Y-57337114D01*
X94391256Y-57199481D01*
X94209244Y-57094396D01*
X94203660Y-57092463D01*
X94203655Y-57092461D01*
X94016214Y-57027587D01*
X94016208Y-57027585D01*
X94010633Y-57025656D01*
X94004794Y-57024816D01*
X94004788Y-57024815D01*
X93808441Y-56996585D01*
X93808435Y-56996584D01*
X93802602Y-56995746D01*
X93796716Y-56996026D01*
X93796710Y-56996026D01*
X93598567Y-57005465D01*
X93598565Y-57005465D01*
X93592670Y-57005746D01*
X93586942Y-57007135D01*
X93586932Y-57007137D01*
X93394160Y-57053904D01*
X93394155Y-57053905D01*
X93388424Y-57055296D01*
X93383054Y-57057747D01*
X93383052Y-57057749D01*
X93202621Y-57140149D01*
X93202614Y-57140152D01*
X93197247Y-57142604D01*
X93192437Y-57146028D01*
X93192432Y-57146032D01*
X93030865Y-57261083D01*
X93030859Y-57261087D01*
X93026048Y-57264514D01*
X93021974Y-57268786D01*
X93021969Y-57268791D01*
X92885088Y-57412348D01*
X92885082Y-57412355D01*
X92881014Y-57416622D01*
X92877822Y-57421588D01*
X92877821Y-57421590D01*
X92770582Y-57588455D01*
X92770578Y-57588462D01*
X92767387Y-57593428D01*
X92765195Y-57598903D01*
X92765190Y-57598913D01*
X92691469Y-57783060D01*
X92691466Y-57783069D01*
X92689275Y-57788543D01*
X92688158Y-57794334D01*
X92688156Y-57794344D01*
X92650617Y-57989117D01*
X92649500Y-57994915D01*
X92649500Y-58452425D01*
X82517660Y-58452425D01*
X82518228Y-56000000D01*
X131794750Y-56000000D01*
X131813670Y-56143709D01*
X131869139Y-56277625D01*
X131957379Y-56392621D01*
X132072375Y-56480861D01*
X132206291Y-56536330D01*
X132350000Y-56555250D01*
X132493709Y-56536330D01*
X132627625Y-56480861D01*
X132742621Y-56392621D01*
X132830861Y-56277625D01*
X132886330Y-56143709D01*
X132905250Y-56000000D01*
X132886330Y-55856291D01*
X132830861Y-55722375D01*
X132742621Y-55607379D01*
X132627625Y-55519139D01*
X132591592Y-55504214D01*
X132501223Y-55466782D01*
X132501220Y-55466781D01*
X132493709Y-55463670D01*
X132485649Y-55462608D01*
X132485646Y-55462608D01*
X132358059Y-55445811D01*
X132350000Y-55444750D01*
X132341941Y-55445811D01*
X132214353Y-55462608D01*
X132214348Y-55462609D01*
X132206291Y-55463670D01*
X132198781Y-55466780D01*
X132198776Y-55466782D01*
X132079885Y-55516028D01*
X132079883Y-55516029D01*
X132072375Y-55519139D01*
X132065933Y-55524082D01*
X132065928Y-55524085D01*
X131963821Y-55602435D01*
X131963817Y-55602438D01*
X131957379Y-55607379D01*
X131952438Y-55613817D01*
X131952435Y-55613821D01*
X131874085Y-55715928D01*
X131874082Y-55715933D01*
X131869139Y-55722375D01*
X131866029Y-55729883D01*
X131866028Y-55729885D01*
X131816782Y-55848776D01*
X131816780Y-55848781D01*
X131813670Y-55856291D01*
X131812609Y-55864348D01*
X131812608Y-55864353D01*
X131795811Y-55991941D01*
X131794750Y-56000000D01*
X82518228Y-56000000D01*
X82519270Y-51502842D01*
X82519402Y-51497160D01*
X82520108Y-51481891D01*
X83562609Y-51481891D01*
X83562819Y-51485497D01*
X83582382Y-51821390D01*
X83582383Y-51821398D01*
X83582593Y-51825004D01*
X83583219Y-51828558D01*
X83583221Y-51828569D01*
X83626818Y-52075818D01*
X83642275Y-52163476D01*
X83643304Y-52166916D01*
X83643307Y-52166925D01*
X83739814Y-52489284D01*
X83739818Y-52489295D01*
X83740847Y-52492732D01*
X83742266Y-52496023D01*
X83742271Y-52496035D01*
X83871439Y-52795477D01*
X83876978Y-52808317D01*
X83878780Y-52811439D01*
X83878782Y-52811442D01*
X84047016Y-53102833D01*
X84047022Y-53102842D01*
X84048825Y-53105965D01*
X84050975Y-53108853D01*
X84050983Y-53108865D01*
X84251912Y-53378759D01*
X84251918Y-53378766D01*
X84254065Y-53381650D01*
X84489922Y-53631644D01*
X84492680Y-53633958D01*
X84492684Y-53633962D01*
X84684250Y-53794704D01*
X84753207Y-53852566D01*
X85040359Y-54041429D01*
X85347495Y-54195679D01*
X85670462Y-54313229D01*
X85750377Y-54332169D01*
X86001385Y-54391659D01*
X86001387Y-54391659D01*
X86004892Y-54392490D01*
X86346262Y-54432391D01*
X86686358Y-54432391D01*
X86689956Y-54432391D01*
X87031326Y-54392490D01*
X87365756Y-54313229D01*
X87688723Y-54195679D01*
X87995859Y-54041429D01*
X88283011Y-53852566D01*
X88546296Y-53631644D01*
X88782153Y-53381650D01*
X88987393Y-53105965D01*
X88990837Y-53100000D01*
X117244722Y-53100000D01*
X117245626Y-53107445D01*
X117262858Y-53249370D01*
X117262859Y-53249375D01*
X117263763Y-53256818D01*
X117266422Y-53263831D01*
X117266423Y-53263832D01*
X117316876Y-53396868D01*
X117319780Y-53404523D01*
X117324043Y-53410699D01*
X117398972Y-53519254D01*
X117409517Y-53534530D01*
X117415126Y-53539499D01*
X117415127Y-53539500D01*
X117507245Y-53621109D01*
X117527760Y-53639283D01*
X117667635Y-53712696D01*
X117821015Y-53750500D01*
X117971485Y-53750500D01*
X117978985Y-53750500D01*
X118132365Y-53712696D01*
X118272240Y-53639283D01*
X118390483Y-53534530D01*
X118480220Y-53404523D01*
X118536237Y-53256818D01*
X118555278Y-53100000D01*
X118536237Y-52943182D01*
X118480220Y-52795477D01*
X118390483Y-52665470D01*
X118361607Y-52639888D01*
X118277856Y-52565692D01*
X118277854Y-52565690D01*
X118272240Y-52560717D01*
X118265595Y-52557229D01*
X118265593Y-52557228D01*
X118139006Y-52490789D01*
X118139002Y-52490787D01*
X118132365Y-52487304D01*
X118125087Y-52485510D01*
X118125084Y-52485509D01*
X118092286Y-52477425D01*
X120199500Y-52477425D01*
X120199779Y-52480354D01*
X120199780Y-52480360D01*
X120207928Y-52565692D01*
X120214472Y-52634218D01*
X120225460Y-52671640D01*
X120270909Y-52826426D01*
X120273684Y-52835875D01*
X120369989Y-53022682D01*
X120400482Y-53061457D01*
X120486595Y-53170958D01*
X120499908Y-53187886D01*
X120658744Y-53325519D01*
X120840756Y-53430604D01*
X121039367Y-53499344D01*
X121247398Y-53529254D01*
X121457330Y-53519254D01*
X121661576Y-53469704D01*
X121852753Y-53382396D01*
X122023952Y-53260486D01*
X122168986Y-53108378D01*
X122282613Y-52931572D01*
X122360725Y-52736457D01*
X122400500Y-52530085D01*
X122400500Y-52477425D01*
X122699500Y-52477425D01*
X122699779Y-52480354D01*
X122699780Y-52480360D01*
X122707928Y-52565692D01*
X122714472Y-52634218D01*
X122725460Y-52671640D01*
X122770909Y-52826426D01*
X122773684Y-52835875D01*
X122869989Y-53022682D01*
X122900482Y-53061457D01*
X122986595Y-53170958D01*
X122999908Y-53187886D01*
X123158744Y-53325519D01*
X123340756Y-53430604D01*
X123539367Y-53499344D01*
X123747398Y-53529254D01*
X123957330Y-53519254D01*
X124161576Y-53469704D01*
X124352753Y-53382396D01*
X124523952Y-53260486D01*
X124668986Y-53108378D01*
X124722755Y-53024711D01*
X124766981Y-52983284D01*
X124825561Y-52967762D01*
X124884501Y-52981855D01*
X124929723Y-53022196D01*
X124950427Y-53079151D01*
X124959806Y-53170960D01*
X124962623Y-53184122D01*
X125013370Y-53337267D01*
X125019432Y-53350266D01*
X125103890Y-53487194D01*
X125112794Y-53498455D01*
X125226544Y-53612205D01*
X125237805Y-53621109D01*
X125374733Y-53705567D01*
X125387732Y-53711629D01*
X125540874Y-53762375D01*
X125554041Y-53765194D01*
X125646890Y-53774680D01*
X125653168Y-53775000D01*
X126033674Y-53775000D01*
X126046549Y-53771549D01*
X126050000Y-53758674D01*
X126050000Y-53758673D01*
X126550000Y-53758673D01*
X126553450Y-53771548D01*
X126566326Y-53774999D01*
X126946829Y-53774999D01*
X126953111Y-53774678D01*
X127045959Y-53765194D01*
X127059122Y-53762376D01*
X127212267Y-53711629D01*
X127225266Y-53705567D01*
X127362194Y-53621109D01*
X127373455Y-53612205D01*
X127487205Y-53498455D01*
X127496109Y-53487194D01*
X127580567Y-53350266D01*
X127586629Y-53337267D01*
X127637375Y-53184125D01*
X127640194Y-53170958D01*
X127649680Y-53078109D01*
X127650000Y-53071832D01*
X127650000Y-52802425D01*
X132899500Y-52802425D01*
X132899779Y-52805354D01*
X132899780Y-52805360D01*
X132913651Y-52950629D01*
X132914472Y-52959218D01*
X132931565Y-53017431D01*
X132961958Y-53120942D01*
X132973684Y-53160875D01*
X133069989Y-53347682D01*
X133103229Y-53389950D01*
X133162054Y-53464752D01*
X133199908Y-53512886D01*
X133358744Y-53650519D01*
X133540756Y-53755604D01*
X133739367Y-53824344D01*
X133947398Y-53854254D01*
X134157330Y-53844254D01*
X134361576Y-53794704D01*
X134552753Y-53707396D01*
X134723952Y-53585486D01*
X134868986Y-53433378D01*
X134893921Y-53394578D01*
X135399500Y-53394578D01*
X135399501Y-53397872D01*
X135399853Y-53401150D01*
X135399854Y-53401161D01*
X135405079Y-53449768D01*
X135405080Y-53449773D01*
X135405909Y-53457483D01*
X135408619Y-53464749D01*
X135408620Y-53464753D01*
X135432573Y-53528973D01*
X135456204Y-53592331D01*
X135461518Y-53599430D01*
X135461519Y-53599431D01*
X135499763Y-53650519D01*
X135542454Y-53707546D01*
X135657669Y-53793796D01*
X135792517Y-53844091D01*
X135852127Y-53850500D01*
X137147872Y-53850499D01*
X137207483Y-53844091D01*
X137342331Y-53793796D01*
X137457546Y-53707546D01*
X137543796Y-53592331D01*
X137594091Y-53457483D01*
X137600500Y-53397873D01*
X137600499Y-51802128D01*
X137594091Y-51742517D01*
X137543796Y-51607669D01*
X137463195Y-51500000D01*
X140019500Y-51500000D01*
X140019710Y-51503606D01*
X140039273Y-51839499D01*
X140039274Y-51839507D01*
X140039484Y-51843113D01*
X140040110Y-51846667D01*
X140040112Y-51846678D01*
X140092599Y-52144344D01*
X140099166Y-52181585D01*
X140100195Y-52185025D01*
X140100198Y-52185034D01*
X140196705Y-52507393D01*
X140196709Y-52507404D01*
X140197738Y-52510841D01*
X140199157Y-52514132D01*
X140199162Y-52514144D01*
X140324782Y-52805360D01*
X140333869Y-52826426D01*
X140335671Y-52829548D01*
X140335673Y-52829551D01*
X140503907Y-53120942D01*
X140503913Y-53120951D01*
X140505716Y-53124074D01*
X140507866Y-53126962D01*
X140507874Y-53126974D01*
X140708803Y-53396868D01*
X140708809Y-53396875D01*
X140710956Y-53399759D01*
X140946813Y-53649753D01*
X140949571Y-53652067D01*
X140949575Y-53652071D01*
X141118477Y-53793796D01*
X141210098Y-53870675D01*
X141213115Y-53872659D01*
X141469716Y-54041429D01*
X141497250Y-54059538D01*
X141734717Y-54178798D01*
X141765090Y-54194053D01*
X141804386Y-54213788D01*
X142127353Y-54331338D01*
X142294567Y-54370968D01*
X142458276Y-54409768D01*
X142458278Y-54409768D01*
X142461783Y-54410599D01*
X142803153Y-54450500D01*
X143143249Y-54450500D01*
X143146847Y-54450500D01*
X143488217Y-54410599D01*
X143822647Y-54331338D01*
X144145614Y-54213788D01*
X144452750Y-54059538D01*
X144739902Y-53870675D01*
X145003187Y-53649753D01*
X145239044Y-53399759D01*
X145444284Y-53124074D01*
X145616131Y-52826426D01*
X145752262Y-52510841D01*
X145850834Y-52181585D01*
X145910516Y-51843113D01*
X145930500Y-51500000D01*
X145930060Y-51492454D01*
X145925381Y-51412114D01*
X145910516Y-51156887D01*
X145850834Y-50818415D01*
X145752262Y-50489159D01*
X145745937Y-50474497D01*
X145617559Y-50176885D01*
X145616131Y-50173574D01*
X145444284Y-49875926D01*
X145442130Y-49873033D01*
X145442125Y-49873025D01*
X145241196Y-49603131D01*
X145241191Y-49603126D01*
X145239044Y-49600241D01*
X145003187Y-49350247D01*
X145000429Y-49347933D01*
X145000424Y-49347928D01*
X144742661Y-49131640D01*
X144742660Y-49131639D01*
X144739902Y-49129325D01*
X144736884Y-49127340D01*
X144455769Y-48942447D01*
X144455761Y-48942442D01*
X144452750Y-48940462D01*
X144352591Y-48890160D01*
X144148851Y-48787837D01*
X144148841Y-48787832D01*
X144145614Y-48786212D01*
X144022516Y-48741408D01*
X143826036Y-48669895D01*
X143826028Y-48669892D01*
X143822647Y-48668662D01*
X143819148Y-48667832D01*
X143819139Y-48667830D01*
X143491723Y-48590231D01*
X143491707Y-48590228D01*
X143488217Y-48589401D01*
X143484652Y-48588984D01*
X143484639Y-48588982D01*
X143150416Y-48549917D01*
X143150413Y-48549916D01*
X143146847Y-48549500D01*
X142803153Y-48549500D01*
X142799587Y-48549916D01*
X142799583Y-48549917D01*
X142465360Y-48588982D01*
X142465344Y-48588984D01*
X142461783Y-48589401D01*
X142458295Y-48590227D01*
X142458276Y-48590231D01*
X142130860Y-48667830D01*
X142130846Y-48667833D01*
X142127353Y-48668662D01*
X142123976Y-48669891D01*
X142123963Y-48669895D01*
X141807787Y-48784974D01*
X141804386Y-48786212D01*
X141801164Y-48787829D01*
X141801148Y-48787837D01*
X141500479Y-48938840D01*
X141500474Y-48938842D01*
X141497250Y-48940462D01*
X141494245Y-48942437D01*
X141494230Y-48942447D01*
X141213115Y-49127340D01*
X141213107Y-49127345D01*
X141210098Y-49129325D01*
X141207347Y-49131632D01*
X141207338Y-49131640D01*
X140949575Y-49347928D01*
X140949561Y-49347940D01*
X140946813Y-49350247D01*
X140944338Y-49352869D01*
X140944333Y-49352875D01*
X140713430Y-49597618D01*
X140713424Y-49597624D01*
X140710956Y-49600241D01*
X140708816Y-49603115D01*
X140708803Y-49603131D01*
X140507874Y-49873025D01*
X140507861Y-49873044D01*
X140505716Y-49875926D01*
X140503917Y-49879040D01*
X140503907Y-49879057D01*
X140335673Y-50170448D01*
X140335667Y-50170458D01*
X140333869Y-50173574D01*
X140332445Y-50176874D01*
X140332440Y-50176885D01*
X140199162Y-50485855D01*
X140199155Y-50485873D01*
X140197738Y-50489159D01*
X140196710Y-50492589D01*
X140196705Y-50492606D01*
X140100198Y-50814965D01*
X140100194Y-50814978D01*
X140099166Y-50818415D01*
X140098540Y-50821960D01*
X140098540Y-50821964D01*
X140040112Y-51153321D01*
X140040110Y-51153334D01*
X140039484Y-51156887D01*
X140039274Y-51160490D01*
X140039273Y-51160500D01*
X140019931Y-51492604D01*
X140019500Y-51500000D01*
X137463195Y-51500000D01*
X137457546Y-51492454D01*
X137355252Y-51415877D01*
X137349431Y-51411519D01*
X137349430Y-51411518D01*
X137342331Y-51406204D01*
X137265605Y-51377587D01*
X137214752Y-51358620D01*
X137214750Y-51358619D01*
X137207483Y-51355909D01*
X137199770Y-51355079D01*
X137199767Y-51355079D01*
X137151180Y-51349855D01*
X137151169Y-51349854D01*
X137147873Y-51349500D01*
X137144550Y-51349500D01*
X135855439Y-51349500D01*
X135855420Y-51349500D01*
X135852128Y-51349501D01*
X135848850Y-51349853D01*
X135848838Y-51349854D01*
X135800231Y-51355079D01*
X135800225Y-51355080D01*
X135792517Y-51355909D01*
X135785252Y-51358618D01*
X135785246Y-51358620D01*
X135665980Y-51403104D01*
X135665978Y-51403104D01*
X135657669Y-51406204D01*
X135650572Y-51411516D01*
X135650568Y-51411519D01*
X135549550Y-51487141D01*
X135549546Y-51487144D01*
X135542454Y-51492454D01*
X135537144Y-51499546D01*
X135537141Y-51499550D01*
X135461519Y-51600568D01*
X135461516Y-51600572D01*
X135456204Y-51607669D01*
X135453104Y-51615978D01*
X135453104Y-51615980D01*
X135408620Y-51735247D01*
X135408619Y-51735250D01*
X135405909Y-51742517D01*
X135405079Y-51750227D01*
X135405079Y-51750232D01*
X135399855Y-51798819D01*
X135399854Y-51798831D01*
X135399500Y-51802127D01*
X135399500Y-51805448D01*
X135399500Y-51805449D01*
X135399500Y-53394560D01*
X135399500Y-53394578D01*
X134893921Y-53394578D01*
X134982613Y-53256572D01*
X135060725Y-53061457D01*
X135100500Y-52855085D01*
X135100500Y-52397575D01*
X135085528Y-52240782D01*
X135026316Y-52039125D01*
X134930011Y-51852318D01*
X134800092Y-51687114D01*
X134641256Y-51549481D01*
X134459244Y-51444396D01*
X134453660Y-51442463D01*
X134453655Y-51442461D01*
X134266214Y-51377587D01*
X134266208Y-51377585D01*
X134260633Y-51375656D01*
X134254794Y-51374816D01*
X134254788Y-51374815D01*
X134058441Y-51346585D01*
X134058435Y-51346584D01*
X134052602Y-51345746D01*
X134046716Y-51346026D01*
X134046710Y-51346026D01*
X133848567Y-51355465D01*
X133848565Y-51355465D01*
X133842670Y-51355746D01*
X133836942Y-51357135D01*
X133836932Y-51357137D01*
X133644160Y-51403904D01*
X133644155Y-51403905D01*
X133638424Y-51405296D01*
X133633054Y-51407747D01*
X133633052Y-51407749D01*
X133452621Y-51490149D01*
X133452614Y-51490152D01*
X133447247Y-51492604D01*
X133442437Y-51496028D01*
X133442432Y-51496032D01*
X133280865Y-51611083D01*
X133280859Y-51611087D01*
X133276048Y-51614514D01*
X133271974Y-51618786D01*
X133271969Y-51618791D01*
X133135088Y-51762348D01*
X133135082Y-51762355D01*
X133131014Y-51766622D01*
X133127822Y-51771588D01*
X133127821Y-51771590D01*
X133020582Y-51938455D01*
X133020578Y-51938462D01*
X133017387Y-51943428D01*
X133015195Y-51948903D01*
X133015190Y-51948913D01*
X132941469Y-52133060D01*
X132941466Y-52133069D01*
X132939275Y-52138543D01*
X132938158Y-52144334D01*
X132938156Y-52144344D01*
X132900617Y-52339117D01*
X132899500Y-52344915D01*
X132899500Y-52802425D01*
X127650000Y-52802425D01*
X127650000Y-52566326D01*
X127646549Y-52553450D01*
X127633674Y-52550000D01*
X126566326Y-52550000D01*
X126553450Y-52553450D01*
X126550000Y-52566326D01*
X126550000Y-53758673D01*
X126050000Y-53758673D01*
X126050000Y-52033674D01*
X126550000Y-52033674D01*
X126553450Y-52046549D01*
X126566326Y-52050000D01*
X127633673Y-52050000D01*
X127646548Y-52046549D01*
X127649999Y-52033674D01*
X127649999Y-51528171D01*
X127649678Y-51521888D01*
X127640194Y-51429040D01*
X127637376Y-51415877D01*
X127586629Y-51262732D01*
X127580567Y-51249733D01*
X127496109Y-51112805D01*
X127487205Y-51101544D01*
X127373455Y-50987794D01*
X127362194Y-50978890D01*
X127225266Y-50894432D01*
X127212267Y-50888370D01*
X127059125Y-50837624D01*
X127045958Y-50834805D01*
X126953109Y-50825319D01*
X126946832Y-50825000D01*
X126566326Y-50825000D01*
X126553450Y-50828450D01*
X126550000Y-50841326D01*
X126550000Y-52033674D01*
X126050000Y-52033674D01*
X126050000Y-50841327D01*
X126046549Y-50828451D01*
X126033674Y-50825001D01*
X125653171Y-50825001D01*
X125646888Y-50825321D01*
X125554040Y-50834805D01*
X125540877Y-50837623D01*
X125387732Y-50888370D01*
X125374733Y-50894432D01*
X125237805Y-50978890D01*
X125226544Y-50987794D01*
X125112794Y-51101544D01*
X125103890Y-51112805D01*
X125019432Y-51249733D01*
X125013370Y-51262732D01*
X124962624Y-51415874D01*
X124959805Y-51429041D01*
X124951151Y-51513754D01*
X124930453Y-51570699D01*
X124885244Y-51611039D01*
X124826318Y-51625142D01*
X124767744Y-51609641D01*
X124731748Y-51575951D01*
X124730011Y-51577318D01*
X124603745Y-51416759D01*
X124603744Y-51416758D01*
X124600092Y-51412114D01*
X124441256Y-51274481D01*
X124259244Y-51169396D01*
X124253660Y-51167463D01*
X124253655Y-51167461D01*
X124066214Y-51102587D01*
X124066208Y-51102585D01*
X124060633Y-51100656D01*
X124054794Y-51099816D01*
X124054788Y-51099815D01*
X123858441Y-51071585D01*
X123858435Y-51071584D01*
X123852602Y-51070746D01*
X123846716Y-51071026D01*
X123846710Y-51071026D01*
X123648567Y-51080465D01*
X123648565Y-51080465D01*
X123642670Y-51080746D01*
X123636942Y-51082135D01*
X123636932Y-51082137D01*
X123444160Y-51128904D01*
X123444155Y-51128905D01*
X123438424Y-51130296D01*
X123433054Y-51132747D01*
X123433052Y-51132749D01*
X123252621Y-51215149D01*
X123252614Y-51215152D01*
X123247247Y-51217604D01*
X123242437Y-51221028D01*
X123242432Y-51221032D01*
X123080865Y-51336083D01*
X123080859Y-51336087D01*
X123076048Y-51339514D01*
X123071974Y-51343786D01*
X123071969Y-51343791D01*
X122935088Y-51487348D01*
X122935082Y-51487355D01*
X122931014Y-51491622D01*
X122927822Y-51496588D01*
X122927821Y-51496590D01*
X122820582Y-51663455D01*
X122820578Y-51663462D01*
X122817387Y-51668428D01*
X122815195Y-51673903D01*
X122815190Y-51673913D01*
X122741469Y-51858060D01*
X122741466Y-51858069D01*
X122739275Y-51863543D01*
X122738158Y-51869334D01*
X122738156Y-51869344D01*
X122705434Y-52039125D01*
X122699500Y-52069915D01*
X122699500Y-52477425D01*
X122400500Y-52477425D01*
X122400500Y-52122575D01*
X122385528Y-51965782D01*
X122326316Y-51764125D01*
X122230011Y-51577318D01*
X122100092Y-51412114D01*
X121941256Y-51274481D01*
X121759244Y-51169396D01*
X121753660Y-51167463D01*
X121753655Y-51167461D01*
X121566214Y-51102587D01*
X121566208Y-51102585D01*
X121560633Y-51100656D01*
X121554794Y-51099816D01*
X121554788Y-51099815D01*
X121358441Y-51071585D01*
X121358435Y-51071584D01*
X121352602Y-51070746D01*
X121346716Y-51071026D01*
X121346710Y-51071026D01*
X121148567Y-51080465D01*
X121148565Y-51080465D01*
X121142670Y-51080746D01*
X121136942Y-51082135D01*
X121136932Y-51082137D01*
X120944160Y-51128904D01*
X120944155Y-51128905D01*
X120938424Y-51130296D01*
X120933054Y-51132747D01*
X120933052Y-51132749D01*
X120752621Y-51215149D01*
X120752614Y-51215152D01*
X120747247Y-51217604D01*
X120742437Y-51221028D01*
X120742432Y-51221032D01*
X120580865Y-51336083D01*
X120580859Y-51336087D01*
X120576048Y-51339514D01*
X120571974Y-51343786D01*
X120571969Y-51343791D01*
X120435088Y-51487348D01*
X120435082Y-51487355D01*
X120431014Y-51491622D01*
X120427822Y-51496588D01*
X120427821Y-51496590D01*
X120320582Y-51663455D01*
X120320578Y-51663462D01*
X120317387Y-51668428D01*
X120315195Y-51673903D01*
X120315190Y-51673913D01*
X120241469Y-51858060D01*
X120241466Y-51858069D01*
X120239275Y-51863543D01*
X120238158Y-51869334D01*
X120238156Y-51869344D01*
X120205434Y-52039125D01*
X120199500Y-52069915D01*
X120199500Y-52477425D01*
X118092286Y-52477425D01*
X117986267Y-52451294D01*
X117986260Y-52451293D01*
X117978985Y-52449500D01*
X117821015Y-52449500D01*
X117813740Y-52451292D01*
X117813732Y-52451294D01*
X117674915Y-52485509D01*
X117674909Y-52485510D01*
X117667635Y-52487304D01*
X117661000Y-52490786D01*
X117660993Y-52490789D01*
X117534406Y-52557228D01*
X117534400Y-52557231D01*
X117527760Y-52560717D01*
X117522148Y-52565687D01*
X117522143Y-52565692D01*
X117415127Y-52660499D01*
X117415122Y-52660503D01*
X117409517Y-52665470D01*
X117405262Y-52671634D01*
X117405257Y-52671640D01*
X117324043Y-52789300D01*
X117324040Y-52789303D01*
X117319780Y-52795477D01*
X117317120Y-52802488D01*
X117317118Y-52802494D01*
X117268166Y-52931572D01*
X117263763Y-52943182D01*
X117262859Y-52950622D01*
X117262858Y-52950629D01*
X117246070Y-53088896D01*
X117244722Y-53100000D01*
X88990837Y-53100000D01*
X89159240Y-52808317D01*
X89295371Y-52492732D01*
X89393943Y-52163476D01*
X89453625Y-51825004D01*
X89473609Y-51481891D01*
X89453625Y-51138778D01*
X89393943Y-50800306D01*
X89295371Y-50471050D01*
X89159240Y-50155465D01*
X88999656Y-49879057D01*
X88989201Y-49860948D01*
X88989198Y-49860944D01*
X88987393Y-49857817D01*
X88985239Y-49854924D01*
X88985234Y-49854916D01*
X88784305Y-49585022D01*
X88784300Y-49585017D01*
X88782153Y-49582132D01*
X88546296Y-49332138D01*
X88543538Y-49329824D01*
X88543533Y-49329819D01*
X88285770Y-49113531D01*
X88285769Y-49113530D01*
X88283011Y-49111216D01*
X88157497Y-49028664D01*
X87998878Y-48924338D01*
X87998870Y-48924333D01*
X87995859Y-48922353D01*
X87911617Y-48880045D01*
X87691960Y-48769728D01*
X87691950Y-48769723D01*
X87688723Y-48768103D01*
X87586661Y-48730955D01*
X87369145Y-48651786D01*
X87369137Y-48651783D01*
X87365756Y-48650553D01*
X87362257Y-48649723D01*
X87362248Y-48649721D01*
X87034832Y-48572122D01*
X87034816Y-48572119D01*
X87031326Y-48571292D01*
X87027761Y-48570875D01*
X87027748Y-48570873D01*
X86693525Y-48531808D01*
X86693522Y-48531807D01*
X86689956Y-48531391D01*
X86346262Y-48531391D01*
X86342696Y-48531807D01*
X86342692Y-48531808D01*
X86008469Y-48570873D01*
X86008453Y-48570875D01*
X86004892Y-48571292D01*
X86001404Y-48572118D01*
X86001385Y-48572122D01*
X85673969Y-48649721D01*
X85673955Y-48649724D01*
X85670462Y-48650553D01*
X85667085Y-48651782D01*
X85667072Y-48651786D01*
X85350896Y-48766865D01*
X85347495Y-48768103D01*
X85344273Y-48769720D01*
X85344257Y-48769728D01*
X85043588Y-48920731D01*
X85043583Y-48920733D01*
X85040359Y-48922353D01*
X85037354Y-48924328D01*
X85037339Y-48924338D01*
X84756224Y-49109231D01*
X84756216Y-49109236D01*
X84753207Y-49111216D01*
X84750456Y-49113523D01*
X84750447Y-49113531D01*
X84492684Y-49329819D01*
X84492670Y-49329831D01*
X84489922Y-49332138D01*
X84487447Y-49334760D01*
X84487442Y-49334766D01*
X84256539Y-49579509D01*
X84256533Y-49579515D01*
X84254065Y-49582132D01*
X84251925Y-49585006D01*
X84251912Y-49585022D01*
X84050983Y-49854916D01*
X84050970Y-49854935D01*
X84048825Y-49857817D01*
X84047026Y-49860931D01*
X84047016Y-49860948D01*
X83878782Y-50152339D01*
X83878776Y-50152349D01*
X83876978Y-50155465D01*
X83875554Y-50158765D01*
X83875549Y-50158776D01*
X83742271Y-50467746D01*
X83742264Y-50467764D01*
X83740847Y-50471050D01*
X83739819Y-50474480D01*
X83739814Y-50474497D01*
X83643307Y-50796856D01*
X83643303Y-50796869D01*
X83642275Y-50800306D01*
X83641649Y-50803851D01*
X83641649Y-50803855D01*
X83583221Y-51135212D01*
X83583219Y-51135225D01*
X83582593Y-51138778D01*
X83582383Y-51142381D01*
X83582382Y-51142391D01*
X83564793Y-51444396D01*
X83562609Y-51481891D01*
X82520108Y-51481891D01*
X82527250Y-51327422D01*
X82536895Y-51131098D01*
X82537930Y-51120100D01*
X82563292Y-50938283D01*
X82563429Y-50937337D01*
X82563447Y-50937218D01*
X82590546Y-50754524D01*
X82592491Y-50744368D01*
X82635037Y-50563474D01*
X82635395Y-50561997D01*
X82679784Y-50384785D01*
X82682477Y-50375574D01*
X82741834Y-50198476D01*
X82742574Y-50196340D01*
X82803788Y-50025260D01*
X82807092Y-50016982D01*
X82864847Y-49886181D01*
X82882665Y-49845826D01*
X82883956Y-49842998D01*
X82961445Y-49679162D01*
X82965170Y-49671919D01*
X83056367Y-49508189D01*
X83058276Y-49504885D01*
X83151303Y-49349679D01*
X83155301Y-49343444D01*
X83261335Y-49188654D01*
X83263961Y-49184971D01*
X83371649Y-49039770D01*
X83375769Y-49034522D01*
X83495661Y-48890142D01*
X83499126Y-48886148D01*
X83620481Y-48752253D01*
X83624599Y-48747928D01*
X83757314Y-48615213D01*
X83761659Y-48611076D01*
X83895558Y-48489717D01*
X83899492Y-48486303D01*
X84043900Y-48366388D01*
X84049150Y-48362265D01*
X84194405Y-48254536D01*
X84198032Y-48251950D01*
X84352837Y-48145907D01*
X84359083Y-48141901D01*
X84514295Y-48048870D01*
X84517492Y-48047022D01*
X84681328Y-47955764D01*
X84688535Y-47952058D01*
X84852444Y-47874534D01*
X84855095Y-47873322D01*
X85026401Y-47797683D01*
X85034646Y-47794393D01*
X85205715Y-47733183D01*
X85207859Y-47732440D01*
X85384969Y-47673078D01*
X85394170Y-47670389D01*
X85571467Y-47625978D01*
X85572780Y-47625659D01*
X85753751Y-47583094D01*
X85763914Y-47581148D01*
X85946791Y-47554021D01*
X85947676Y-47553893D01*
X86129473Y-47528533D01*
X86140489Y-47527496D01*
X86339467Y-47517727D01*
X86506251Y-47510016D01*
X86511906Y-47509885D01*
X142997137Y-47500500D01*
X143002845Y-47500631D01*
G37*
%TD.AperFunction*%
%TD*%
M02*
