%TF.GenerationSoftware,KiCad,Pcbnew,(7.0.0)*%
%TF.CreationDate,2023-10-25T22:20:09+02:00*%
%TF.ProjectId,ProjetA,50726f6a-6574-4412-9e6b-696361645f70,rev?*%
%TF.SameCoordinates,Original*%
%TF.FileFunction,Paste,Top*%
%TF.FilePolarity,Positive*%
%FSLAX46Y46*%
G04 Gerber Fmt 4.6, Leading zero omitted, Abs format (unit mm)*
G04 Created by KiCad (PCBNEW (7.0.0)) date 2023-10-25 22:20:09*
%MOMM*%
%LPD*%
G01*
G04 APERTURE LIST*
G04 Aperture macros list*
%AMRoundRect*
0 Rectangle with rounded corners*
0 $1 Rounding radius*
0 $2 $3 $4 $5 $6 $7 $8 $9 X,Y pos of 4 corners*
0 Add a 4 corners polygon primitive as box body*
4,1,4,$2,$3,$4,$5,$6,$7,$8,$9,$2,$3,0*
0 Add four circle primitives for the rounded corners*
1,1,$1+$1,$2,$3*
1,1,$1+$1,$4,$5*
1,1,$1+$1,$6,$7*
1,1,$1+$1,$8,$9*
0 Add four rect primitives between the rounded corners*
20,1,$1+$1,$2,$3,$4,$5,0*
20,1,$1+$1,$4,$5,$6,$7,0*
20,1,$1+$1,$6,$7,$8,$9,0*
20,1,$1+$1,$8,$9,$2,$3,0*%
G04 Aperture macros list end*
%ADD10RoundRect,0.250000X0.400000X0.625000X-0.400000X0.625000X-0.400000X-0.625000X0.400000X-0.625000X0*%
%ADD11RoundRect,0.237500X-0.237500X0.300000X-0.237500X-0.300000X0.237500X-0.300000X0.237500X0.300000X0*%
%ADD12RoundRect,0.237500X-0.237500X0.287500X-0.237500X-0.287500X0.237500X-0.287500X0.237500X0.287500X0*%
%ADD13RoundRect,0.237500X-0.300000X-0.237500X0.300000X-0.237500X0.300000X0.237500X-0.300000X0.237500X0*%
%ADD14RoundRect,0.237500X-0.287500X-0.237500X0.287500X-0.237500X0.287500X0.237500X-0.287500X0.237500X0*%
%ADD15RoundRect,0.237500X0.300000X0.237500X-0.300000X0.237500X-0.300000X-0.237500X0.300000X-0.237500X0*%
%ADD16RoundRect,0.237500X0.237500X-0.300000X0.237500X0.300000X-0.237500X0.300000X-0.237500X-0.300000X0*%
%ADD17RoundRect,0.075000X-0.700000X-0.075000X0.700000X-0.075000X0.700000X0.075000X-0.700000X0.075000X0*%
%ADD18RoundRect,0.075000X-0.075000X-0.700000X0.075000X-0.700000X0.075000X0.700000X-0.075000X0.700000X0*%
%ADD19RoundRect,0.087500X0.087500X-0.200000X0.087500X0.200000X-0.087500X0.200000X-0.087500X-0.200000X0*%
%ADD20RoundRect,0.087500X0.200000X-0.087500X0.200000X0.087500X-0.200000X0.087500X-0.200000X-0.087500X0*%
%ADD21R,0.740000X2.400000*%
%ADD22RoundRect,0.200000X0.200000X0.550000X-0.200000X0.550000X-0.200000X-0.550000X0.200000X-0.550000X0*%
%ADD23RoundRect,0.200000X0.550000X-0.200000X0.550000X0.200000X-0.550000X0.200000X-0.550000X-0.200000X0*%
%ADD24RoundRect,0.237500X0.287500X0.237500X-0.287500X0.237500X-0.287500X-0.237500X0.287500X-0.237500X0*%
%ADD25RoundRect,0.250000X-0.625000X0.400000X-0.625000X-0.400000X0.625000X-0.400000X0.625000X0.400000X0*%
%ADD26R,1.700000X0.900000*%
%ADD27R,1.500000X2.000000*%
%ADD28R,3.800000X2.000000*%
G04 APERTURE END LIST*
D10*
%TO.C,R1*%
X137325000Y-57300000D03*
X134225000Y-57300000D03*
%TD*%
D11*
%TO.C,C3*%
X98900000Y-66137500D03*
X98900000Y-67862500D03*
%TD*%
D10*
%TO.C,R6*%
X123050000Y-86500000D03*
X119950000Y-86500000D03*
%TD*%
D12*
%TO.C,D2*%
X95000000Y-90400000D03*
X95000000Y-92150000D03*
%TD*%
D13*
%TO.C,C9*%
X123737500Y-68600000D03*
X125462500Y-68600000D03*
%TD*%
D14*
%TO.C,D1*%
X140200000Y-59512500D03*
X141950000Y-59512500D03*
%TD*%
D13*
%TO.C,C11*%
X132200000Y-73300000D03*
X133925000Y-73300000D03*
%TD*%
D15*
%TO.C,C8*%
X125600000Y-71100000D03*
X123875000Y-71100000D03*
%TD*%
D16*
%TO.C,C12*%
X134125000Y-77425000D03*
X134125000Y-75700000D03*
%TD*%
D13*
%TO.C,C10*%
X130725000Y-79600000D03*
X132450000Y-79600000D03*
%TD*%
D11*
%TO.C,C1*%
X131575000Y-57575000D03*
X131575000Y-59300000D03*
%TD*%
D13*
%TO.C,C2*%
X140275000Y-62000000D03*
X142000000Y-62000000D03*
%TD*%
D15*
%TO.C,C4*%
X142000000Y-64400000D03*
X140275000Y-64400000D03*
%TD*%
D17*
%TO.C,U2*%
X109905000Y-70950000D03*
X109905000Y-71450000D03*
X109905000Y-71950000D03*
X109905000Y-72450000D03*
X109905000Y-72950000D03*
X109905000Y-73450000D03*
X109905000Y-73950000D03*
X109905000Y-74450000D03*
X109905000Y-74950000D03*
X109905000Y-75450000D03*
X109905000Y-75950000D03*
X109905000Y-76450000D03*
X109905000Y-76950000D03*
X109905000Y-77450000D03*
X109905000Y-77950000D03*
X109905000Y-78450000D03*
D18*
X111830000Y-80375000D03*
X112330000Y-80375000D03*
X112830000Y-80375000D03*
X113330000Y-80375000D03*
X113830000Y-80375000D03*
X114330000Y-80375000D03*
X114830000Y-80375000D03*
X115330000Y-80375000D03*
X115830000Y-80375000D03*
X116330000Y-80375000D03*
X116830000Y-80375000D03*
X117330000Y-80375000D03*
X117830000Y-80375000D03*
X118330000Y-80375000D03*
X118830000Y-80375000D03*
X119330000Y-80375000D03*
D17*
X121255000Y-78450000D03*
X121255000Y-77950000D03*
X121255000Y-77450000D03*
X121255000Y-76950000D03*
X121255000Y-76450000D03*
X121255000Y-75950000D03*
X121255000Y-75450000D03*
X121255000Y-74950000D03*
X121255000Y-74450000D03*
X121255000Y-73950000D03*
X121255000Y-73450000D03*
X121255000Y-72950000D03*
X121255000Y-72450000D03*
X121255000Y-71950000D03*
X121255000Y-71450000D03*
X121255000Y-70950000D03*
D18*
X119330000Y-69025000D03*
X118830000Y-69025000D03*
X118330000Y-69025000D03*
X117830000Y-69025000D03*
X117330000Y-69025000D03*
X116830000Y-69025000D03*
X116330000Y-69025000D03*
X115830000Y-69025000D03*
X115330000Y-69025000D03*
X114830000Y-69025000D03*
X114330000Y-69025000D03*
X113830000Y-69025000D03*
X113330000Y-69025000D03*
X112830000Y-69025000D03*
X112330000Y-69025000D03*
X111830000Y-69025000D03*
%TD*%
D19*
%TO.C,U4*%
X130525000Y-77500000D03*
X131025000Y-77500000D03*
X131525000Y-77500000D03*
X132025000Y-77500000D03*
D20*
X132125000Y-76900000D03*
X132125000Y-76400000D03*
X132125000Y-75900000D03*
D19*
X132025000Y-75300000D03*
X131525000Y-75300000D03*
X131025000Y-75300000D03*
X130525000Y-75300000D03*
D20*
X130425000Y-75900000D03*
X130425000Y-76400000D03*
X130425000Y-76900000D03*
%TD*%
D21*
%TO.C,J5*%
X127809999Y-58499999D03*
X127809999Y-62399999D03*
X126539999Y-58499999D03*
X126539999Y-62399999D03*
X125269999Y-58499999D03*
X125269999Y-62399999D03*
X123999999Y-58499999D03*
X123999999Y-62399999D03*
X122729999Y-58499999D03*
X122729999Y-62399999D03*
X121459999Y-58499999D03*
X121459999Y-62399999D03*
X120189999Y-58499999D03*
X120189999Y-62399999D03*
%TD*%
D10*
%TO.C,R2*%
X114800000Y-64700000D03*
X111700000Y-64700000D03*
%TD*%
D22*
%TO.C,U3*%
X107850000Y-93187500D03*
X109050000Y-93187500D03*
X110250000Y-93187500D03*
X111450000Y-93187500D03*
X112650000Y-93187500D03*
X113850000Y-93187500D03*
X115050000Y-93187500D03*
D23*
X116650000Y-90737500D03*
X116650000Y-89537500D03*
X116650000Y-88337500D03*
X116650000Y-87137500D03*
D22*
X115050000Y-84687500D03*
X113850000Y-84687500D03*
X112650000Y-84687500D03*
X111450000Y-84687500D03*
X110250000Y-84687500D03*
X109050000Y-84687500D03*
%TD*%
D24*
%TO.C,D3*%
X123000000Y-90000000D03*
X121250000Y-90000000D03*
%TD*%
D25*
%TO.C,R3*%
X92000000Y-90100000D03*
X92000000Y-93200000D03*
%TD*%
D10*
%TO.C,R5*%
X131800000Y-84100000D03*
X128700000Y-84100000D03*
%TD*%
D15*
%TO.C,C7*%
X125600000Y-73600000D03*
X123875000Y-73600000D03*
%TD*%
%TO.C,C6*%
X125600000Y-76000000D03*
X123875000Y-76000000D03*
%TD*%
D25*
%TO.C,R4*%
X128800000Y-67650000D03*
X128800000Y-70750000D03*
%TD*%
D26*
%TO.C,SW1*%
X102499999Y-69399999D03*
X102499999Y-65999999D03*
%TD*%
D27*
%TO.C,U1*%
X136374999Y-62499999D03*
X134074999Y-62499999D03*
D28*
X134074999Y-68799999D03*
D27*
X131774999Y-62499999D03*
%TD*%
D15*
%TO.C,C5*%
X125600000Y-78400000D03*
X123875000Y-78400000D03*
%TD*%
M02*
